<svg width="211" height="384" viewBox="0 0 211 384" fill="none" xmlns="http://www.w3.org/2000/svg">
<path d="M134.191 212.535C130.612 179.162 140.766 112.951 160.821 77.8119C165.61 69.4207 175.911 59.6998 188.904 52.2935C195.856 48.3308 203.226 44.3535 207.623 37.6673C210.503 33.2858 209.781 30.9786 204.486 29.5503C182.05 26.907 168.25 37.3267 158.428 52.3079C148.182 67.9341 143.406 82.1035 139.827 93.3978C129.776 130.664 128.508 145.247 124.785 174.286C121.291 209.376 106.193 226.749 99.0815 231.05C47.2501 258.007 33.2161 277.959 32.678 284.566C57.275 314.497 91.2233 328.903 120.42 302.706C147.142 278.731 138.664 254.252 134.191 212.535Z" fill="#57140F"/>
<path d="M122.512 253.449C118.301 212.324 85.3824 243.879 83.0375 244.668C82.3339 244.905 72.2606 251.447 68.862 251.772C62.2964 252.4 57.6874 258.619 57.1513 260.606C56.4813 263.091 52.8259 266.103 51.7299 266.873C43.6858 269.821 38.7185 268.001 31.0723 280.224C26.9211 288.699 22.0509 307.428 23.4529 318.04C25.2054 331.305 20.5046 328.972 21.1686 340.344C21.8325 351.717 21.9108 347.474 24.722 343.968C26.971 341.163 28.9758 334.454 29.697 331.451C30.9892 296.62 55.6741 303.632 64.4087 303.856C81.2517 301.025 125.005 277.803 122.512 253.449Z" fill="#DC143C"/>
<path d="M120.097 244.597C114.084 228.91 91.1612 242.305 78.1847 252.678C76.3999 254.105 74.1797 254.836 71.905 255.053C56.4573 256.527 62.6466 270.622 50.5154 270.884C37.5404 271.163 38.4109 277.502 35.2958 284.8C32.1807 292.099 38.1555 295.454 41.2913 293.393C43.7999 291.744 46.6288 293.089 47.7297 293.967C48.3121 294.996 57.2295 300.715 65.764 298.831C74.2985 296.947 85.6612 293.163 91.8186 290.173C104.781 284.271 126.558 261.454 120.097 244.597Z" fill="#B8092C"/>
<path d="M177.111 49.4085C164.035 51.5577 173.124 39.2678 185.449 36.0885C194.379 33.7673 201.936 35.8055 196.395 40.2231C191.961 43.7573 181.692 47.8193 177.111 49.4085Z" fill="#F8F8F8"/>
<path d="M179.428 50.091C178.727 50.1848 178.219 50.5941 177.674 51.0324L177.39 51.1046C176.633 51.4955 175.846 51.8996 174.747 51.8052C173.708 51.7055 173.099 51.4171 172.424 51.0918C171.807 50.699 170.983 50.6137 169.852 49.1759C168.826 47.4864 169.638 45.9749 170.104 45.1517C170.64 44.2656 171.177 43.6853 171.404 43.2348C171.891 42.3432 172.458 42.7294 173.327 41.7222C174.228 40.7331 174.945 40.3245 176.006 39.8331C177.048 39.3072 180.144 37.7469 181.26 37.1357C182.365 36.4758 183.857 36.327 184.698 36.1548C184.962 36.1018 185.174 36.074 185.338 36.06C185.407 36.0541 185.444 36.0697 185.45 36.0928C185.45 36.0928 185.45 36.0928 185.45 36.0928C185.457 36.1216 185.417 36.1621 185.333 36.1886C184.927 36.317 184.329 36.5391 183.665 36.9051C182.448 37.6151 182.203 37.4077 180.575 38.3479C178.973 39.334 178.21 40.1835 176.372 41.3268C174.569 42.5249 174.748 43.5374 172.697 45.4478C171.692 46.4438 171.702 47.3808 172.042 47.6018C172.212 47.7155 172.349 47.6102 172.527 47.5687C172.712 47.5204 173.009 47.5188 173.573 47.5187C174.421 47.5184 175.588 47.4493 176.768 47.3253L176.419 47.414C178.352 46.8597 180.24 46.3902 181.288 45.9085C182.989 45.1266 185.207 43.9676 187.652 43.0062C190.096 42.0423 192.756 40.1025 195.042 38.8022C195.092 38.7732 195.142 38.7442 195.192 38.715C195.416 38.581 195.605 38.4667 195.812 38.3201C196.265 38.0185 196.642 37.6147 196.741 37.5244C196.789 37.4828 196.861 37.5716 196.887 37.4977C196.911 37.4304 196.808 37.2514 196.633 37.0938C195.853 36.4148 194.54 36.06 193.764 35.8603C191.927 35.4419 191.42 35.4562 189.609 35.7076C188.566 35.866 187.115 35.9571 185.864 36.0789C185.234 36.144 185.349 36.0238 185.946 35.7972C186.821 35.4658 187.577 35.3663 188.014 35.0714C188.884 34.4762 189.288 34.1384 190.542 34.2291C191.787 34.3639 192.363 33.6227 193.12 33.6641C193.505 33.6976 193.674 33.8271 194.243 33.9346C194.834 34.107 195.681 33.9315 197.904 34.7002C198.504 34.959 199.182 35.3799 199.639 36.1802C200.109 36.9829 200.091 37.9853 199.906 38.6281C199.519 39.9249 198.921 40.5384 198.459 41.0773C198.17 41.3895 197.945 41.609 197.686 41.8425C197.214 42.271 196.792 42.6063 196.438 42.8838C195.274 43.8183 192.492 44.8292 190.546 45.9335C188.6 47.0815 184.358 48.6738 182.745 49.5376C181.127 50.413 180.919 49.8853 179.428 50.091Z" fill="#410F0B"/>
<path d="M46.644 302.529C49.7119 302.024 59.2804 302.186 65.1233 302.429L58.6133 301.473C63.8749 302.039 71.6253 299.829 74.8429 298.654C55.7733 303.638 61.7126 298.044 45.092 300.224C28.5884 302.389 28.5781 320.565 28.5766 323.168L28.5765 323.221C28.5748 325.14 27.6996 332.846 27.2622 336.459C27.9591 333.875 28.5599 329.258 28.7732 327.272C29.5703 331.964 26.8919 339.824 25.4531 343.167C29.7326 336.859 30.3877 326.464 30.1803 322.055C32.2317 306.084 42.7152 303.176 46.644 302.529Z" fill="#A00322"/>
<path d="M50.7451 272.562L53.3493 271.536L53.3708 271.527C54.0661 271.253 54.7004 270.844 55.2369 270.324L55.7304 269.845C55.9631 269.62 56.2381 269.442 56.5396 269.324C57.0474 269.124 57.6074 269.098 58.1311 269.252L59.1205 269.543C59.2177 269.572 59.3093 269.617 59.3913 269.676C59.8225 269.99 59.8801 270.611 59.5139 270.998L58.4879 272.084C58.2001 272.389 57.8314 272.604 57.4251 272.706L56.595 272.914C56.2313 273.005 55.8587 273.056 55.4839 273.066L54.8543 273.083C54.2714 273.099 53.6999 273.248 53.1843 273.521L52.903 273.669C52.6665 273.794 52.4084 273.873 52.1425 273.902L51.1043 274.016C50.7655 274.053 50.4438 273.859 50.3189 273.542C50.1659 273.153 50.3567 272.715 50.7451 272.562Z" fill="#CD1539"/>
<path d="M79.3775 253.853L82.5095 252.619L82.7488 252.524C83.4442 252.251 84.0785 251.842 84.615 251.321L85.3733 250.586C85.6531 250.315 85.9838 250.101 86.3464 249.958C86.9572 249.718 87.6307 249.688 88.2605 249.873L89.4505 250.222C89.5674 250.257 89.6776 250.311 89.7762 250.383C90.2948 250.76 90.364 251.507 89.9236 251.973L88.6896 253.278C88.3436 253.645 87.9001 253.904 87.4114 254.027L86.3589 254.29C85.9575 254.391 85.5463 254.447 85.1326 254.458L84.3196 254.48C83.6186 254.499 82.9312 254.679 82.3111 255.006L81.9728 255.185C81.6883 255.335 81.378 255.43 81.0581 255.465L79.8095 255.602C79.4021 255.647 79.0152 255.413 78.8649 255.032C78.6809 254.564 78.9104 254.037 79.3775 253.853Z" fill="#CD1539"/>
<path d="M66.8961 290.661L67.204 289.207C67.2681 288.905 67.045 288.617 66.7357 288.603C66.6431 288.599 66.5512 288.621 66.4702 288.666L63.7869 290.16C63.4872 290.327 63.2124 290.535 62.9703 290.778L61.4064 292.348C61.2739 292.481 61.237 292.681 61.3136 292.853C61.4157 293.081 61.6839 293.184 61.9126 293.082L63.1388 292.534C63.373 292.43 63.6268 292.376 63.8833 292.378L64.195 292.38C64.6033 292.383 65.0075 292.298 65.3804 292.131L65.8924 291.903C66.4064 291.673 66.7795 291.211 66.8961 290.661Z" fill="#CD1539"/>
<path d="M98.8025 275.618L99.1728 273.87C99.2499 273.506 98.9816 273.16 98.6096 273.143C98.4983 273.138 98.3877 273.165 98.2903 273.219L95.0631 275.016C94.7027 275.217 94.3721 275.467 94.081 275.759L92.2001 277.647C92.0408 277.807 91.9964 278.048 92.0885 278.254C92.2113 278.529 92.5339 278.653 92.8089 278.53L94.2837 277.871C94.5653 277.745 94.8706 277.681 95.179 277.683L95.5539 277.686C96.045 277.689 96.5311 277.587 96.9796 277.387L97.5954 277.112C98.2135 276.835 98.6622 276.28 98.8025 275.618Z" fill="#CD1539"/>
<path d="M75.7655 277.022L75.6992 279.024L75.5727 280.662C75.5122 281.446 75.183 282.184 74.6409 282.752L74.5822 282.814C74.4506 282.952 74.3345 283.104 74.2357 283.267L73.4557 284.555C73.1057 285.133 73.3082 285.887 73.9009 286.211C74.2907 286.425 74.7672 286.403 75.1356 286.154L75.4167 285.964C75.9412 285.61 76.3331 285.092 76.5308 284.491L76.9177 283.315C77.0341 282.961 77.1999 282.625 77.4102 282.318L77.6375 281.985C78.473 280.764 78.8262 279.276 78.6289 277.809L78.5432 277.172C78.5048 276.887 78.3842 276.618 78.1962 276.4L78.0422 276.221C77.5099 275.602 76.545 275.623 76.0411 276.266C75.8711 276.482 75.7746 276.747 75.7655 277.022Z" fill="#CD1539"/>
<path d="M109.469 259.215L109.389 261.622L109.237 263.593C109.164 264.535 108.768 265.423 108.116 266.107L108.046 266.181C107.887 266.347 107.748 266.529 107.629 266.726L106.691 268.275C106.27 268.97 106.513 269.876 107.226 270.267C107.695 270.524 108.268 270.497 108.711 270.198L109.049 269.97C109.68 269.544 110.151 268.921 110.389 268.198L110.854 266.783C110.994 266.358 111.194 265.954 111.447 265.584L111.72 265.184C112.725 263.715 113.15 261.926 112.913 260.162L112.809 259.396C112.763 259.052 112.618 258.729 112.392 258.466L112.207 258.251C111.567 257.507 110.406 257.533 109.8 258.305C109.596 258.566 109.48 258.884 109.469 259.215Z" fill="#CD1539"/>
<path d="M101.852 245.686L104.141 244.938L106.045 244.407C106.955 244.154 107.925 244.222 108.791 244.601L108.884 244.643C109.094 244.735 109.314 244.803 109.539 244.848L111.316 245.2C112.113 245.358 112.881 244.819 113.004 244.016C113.086 243.488 112.865 242.958 112.432 242.644L112.102 242.404C111.486 241.957 110.74 241.727 109.979 241.751L108.49 241.797C108.043 241.811 107.595 241.761 107.161 241.65L106.692 241.53C104.968 241.088 103.141 241.3 101.565 242.126L100.88 242.485C100.572 242.645 100.319 242.892 100.149 243.194L100.01 243.442C99.5292 244.298 99.9504 245.38 100.883 245.685C101.198 245.788 101.537 245.789 101.852 245.686Z" fill="#CD1539"/>
<path d="M50.6653 284.832L48.5146 285.374C47.802 285.553 47.0484 285.467 46.3947 285.132C45.3173 284.579 44.268 285.919 45.0638 286.832L45.2335 287.027C45.3637 287.176 45.5076 287.313 45.6633 287.435L46.039 287.73C46.8797 288.391 47.9791 288.625 49.0159 288.363L49.0951 288.344C49.2673 288.3 49.4347 288.239 49.5947 288.162L51.5342 287.23C52.3822 286.822 52.5165 285.67 51.785 285.078C51.4714 284.824 51.0566 284.733 50.6653 284.832Z" fill="#CD1539"/>
<path d="M79.2807 268.607L76.6941 269.259C75.8371 269.475 74.9307 269.372 74.1445 268.968C72.8487 268.303 71.5867 269.915 72.5438 271.013L72.748 271.248C72.9045 271.427 73.0775 271.592 73.2649 271.739L73.7167 272.094C74.7278 272.888 76.0501 273.169 77.297 272.855L77.3922 272.831C77.5993 272.779 77.8006 272.706 77.9931 272.613L80.3257 271.491C81.3455 271.001 81.507 269.616 80.6274 268.904C80.2502 268.598 79.7512 268.489 79.2807 268.607Z" fill="#CD1539"/>
<path d="M50.4851 277.418C49.5134 277.421 48.4264 277.515 47.3658 277.73C39.5158 276.489 41.3074 277.92 43.1844 278.791C44.9242 279.57 46.4708 279.797 47.8135 279.773C51.102 279.713 53.7741 277.41 50.4851 277.418Z" fill="#A00322"/>
<path d="M80.0674 259.718C78.6773 259.64 76.968 259.731 75.3121 260.066C65.8711 258.575 68.0258 260.296 70.2833 261.343C72.8231 262.481 75.0204 262.639 76.8528 262.467C80.1273 262.159 83.3513 259.901 80.0674 259.718Z" fill="#A00322"/>
<path d="M40.1595 280.784C40.1179 280.778 40.0872 280.771 40.0689 280.763L40.1595 280.784C40.8379 280.885 44.4396 280.801 45.4246 280.531L45.5482 280.49C45.5135 280.504 45.4721 280.517 45.4246 280.531L44.1591 280.944C43.2726 281.234 42.3239 281.278 41.4145 281.07L40.1595 280.784Z" fill="#40D05F"/>
<path d="M66.6453 263.74C66.5952 263.733 66.5584 263.725 66.5363 263.716L66.6453 263.74C67.4611 263.862 71.7929 263.761 72.9775 263.436L73.1262 263.387C73.0845 263.404 73.0346 263.42 72.9775 263.436L71.1809 264.023C70.2944 264.313 69.3457 264.357 68.4363 264.149L66.6453 263.74Z" fill="#40D05F"/>
<path d="M91.3492 263.485C89.3145 259.909 82.5359 261.807 78.4364 263.74C66.5754 270.145 70.8356 274.373 74.4483 275.687C79.8699 277.46 84.3643 275.797 87.4772 273.487C90.608 271.164 93.2775 266.873 91.3492 263.485Z" fill="#A00322"/>
<path d="M79.8961 270.44C88.7567 260.97 81.8286 259.033 77.257 259.248C76.2474 259.25 75.1823 259.706 74.7759 259.934C72.6092 261.729 70.084 264.574 69.0923 265.772C66.4155 268.183 68.6194 269.253 70.056 269.486L79.8961 270.44Z" fill="#FDA982"/>
<path d="M87.8236 262.661C86.1274 261.423 82.7512 260.229 81.2751 259.786C86.8223 261.508 82.6671 267.606 79.8961 270.439L82.4908 274.495C87.1524 271.535 88.9405 267.646 89.2519 266.072C89.4826 265.451 89.5198 263.899 87.8236 262.661Z" fill="#FC8750"/>
<path d="M79.8958 270.44L82.4904 274.495C78.7975 274.847 73.3207 273.637 70.7573 272.967C66.0602 270.218 67.3572 267.182 68.8794 266.028C66.8076 268.325 68.9684 269.259 70.3077 269.439L79.8958 270.44Z" fill="#FC7536"/>
<path d="M80.7872 289.174C81.602 288.131 83.772 287.31 84.7551 287.03C86.1069 287.169 88.4232 288.47 88.1456 288.057C87.8681 287.644 88.8523 287.909 90.8916 288.177C92.5231 288.392 91.6659 287.916 91.0334 287.652C87.5594 287.346 86.1071 286.962 85.8152 286.808C86.0931 286.808 86.8317 286.789 87.5628 286.715C88.2939 286.642 87.9241 286.475 87.6478 286.4C87.4746 286.218 85.0601 286.586 83.8745 286.792C84.1912 286.607 84.6005 286.161 84.7655 285.961C85.9728 284.369 87.7438 284.396 88.6577 284.304C89.5716 284.212 89.4871 283.907 88.7853 283.831C88.2239 283.77 87.0061 284.178 86.4674 284.39C86.9843 283.984 88.1944 283.096 88.8993 282.79C89.7805 282.408 90.0351 282.081 88.9375 282.237C88.0594 282.361 86.5795 283.631 85.9493 284.25C86.0741 283.788 87.0955 282.473 87.5906 281.873C88.0059 280.993 87.6132 281.24 87.3649 281.474L86.5868 282.505C86.8285 281.938 86.9616 281.253 86.9979 280.98C87.041 280.203 86.8622 280.042 86.4799 280.841C86.0977 281.64 85.8327 283.035 85.6576 283.89C85.5176 284.574 84.3102 285.932 83.7241 286.526C85.0079 283.579 84.9715 282.107 84.7928 281.739C84.6615 281.072 84.4964 281.396 84.4302 281.641C84.5127 282.16 84.3188 283.359 84.2116 283.894C84.0161 283.3 83.7601 283.096 83.6565 283.068C83.2648 282.872 83.3518 283.099 83.4444 283.236C84.7764 284.272 83.5545 286.537 83.1962 286.835C82.9096 287.073 81.3675 288.052 80.6323 288.512C80.1342 289.37 80.528 289.311 80.7872 289.174Z" fill="#40D05F"/>
<path d="M29.5513 298.269C28.2969 300.113 27.2519 302.867 26.6497 304.942C24.1611 314.904 27.6717 313.436 29.7381 311.457C32.0311 309.154 33.3035 306.567 33.9591 304.221C35.0852 300.193 31.9495 294.743 29.5513 298.269Z" fill="#A00322"/>
<path d="M26.534 300.412L19.4319 310.57C18.2922 311.559 22.1717 311.237 23.5208 311.822C23.9506 312.009 24.3924 312.265 24.8058 312.613C26.0906 313.695 27.0092 313.158 27.3079 312.755C28.4502 311.491 31.1488 308.402 32.8047 306.15C34.4607 303.898 29.3143 301.386 26.534 300.412Z" fill="#922A14"/>
<path d="M25.8973 295.034C26.515 296.568 26.5455 299.468 26.4835 300.726C28.6608 301.442 31.771 304.148 33.054 305.411C33.8469 304.606 33.9518 300.652 33.9052 298.775C33.8648 297.533 32.7087 296.747 31.7137 296.637C30.9177 296.549 29.5042 295.867 28.8969 295.537C27.6238 294.593 26.8374 294.955 25.8973 295.034Z" fill="#741D0F"/>
<path d="M20.3905 309.94C20.8265 309.575 24.356 304.243 26.0663 301.622C26.4935 301.031 26.6222 300.631 26.6331 300.505C26.864 298.946 26.3264 296.428 26.0287 295.364C25.9409 294.939 25.8567 295.018 25.6483 295.159C25.4171 295.247 24.8936 295.794 24.6607 296.056C23.7136 297.581 21.073 300.396 20.3964 301.135C19.8551 301.726 19.498 302.828 19.3871 303.305C19.3117 304.149 19.125 306.424 18.982 308.777C18.8032 311.717 19.8455 310.396 20.3905 309.94Z" fill="#BF532C"/>
<path d="M32.4324 298.972C32.9719 299.75 33.5484 301.011 33.8285 301.7C33.842 301.706 33.8688 301.594 33.8687 301.103C33.8686 300.612 32.7807 298.876 32.2367 298.068C31.7742 297.807 32.1358 298.545 32.4324 298.972Z" fill="#500906"/>
<path d="M24.0244 301.102L24.1932 304.011C24.5984 305.266 28.7009 307.678 30.7015 308.728C30.3358 309.432 29.7323 309.891 29.4763 310.033C26.2451 307.656 24.691 306.212 24.3178 305.788C23.9051 305.448 23.7239 304.85 23.6848 304.593C23.6652 303.749 23.6551 301.917 23.7721 301.338C23.889 300.759 23.989 300.94 24.0244 301.102Z" fill="#741C0F"/>
<path d="M22.254 301.024C21.9792 302.924 22.2133 305.746 22.3647 306.921C22.3384 307.222 22.5538 307.57 22.6648 307.707C23.4672 308.299 25.1379 309.587 25.4013 310.002C25.6647 310.417 25.3697 310.343 25.1892 310.254L22.4783 308.414C21.8374 308.075 21.6527 307.497 21.6405 307.251C21.6258 307.2 21.5976 306.286 21.5854 305.836C21.6229 304.494 21.7471 301.685 21.9431 301.181C22.1391 300.678 22.232 300.867 22.254 301.024Z" fill="#751C0F"/>
<path d="M31.119 307.219C31.191 307.303 31.3598 307.458 31.4593 307.408C31.5557 307.359 31.7319 307.37 31.785 307.278C31.8386 307.186 31.8921 307.091 31.9201 307.03C31.9728 306.917 31.9054 306.857 31.8652 306.842C31.6721 306.766 30.9408 306.035 30.5994 305.678C30.2518 305.097 29.8018 305.144 29.2641 304.766C28.8338 304.465 27.7044 303.655 27.1934 303.289C27.0593 303.236 26.7156 303.069 26.4142 302.817C26.1127 302.565 26.191 302.786 26.2679 302.927C26.4787 303.455 26.985 303.839 27.2118 303.965C28.8595 304.921 30.5032 306.533 31.119 307.219Z" fill="#71180A"/>
<path d="M25.9217 311.543C26.4426 312.059 27.0924 312.502 27.3521 312.659C27.457 312.57 27.6754 312.373 27.7105 312.298C27.4676 312.247 26.5435 311.637 26.1118 311.339C25.4329 311.163 25.7022 311.401 25.9217 311.543Z" fill="#76190C"/>
<path d="M30.5321 299.073C32.3791 301.891 32.7655 304.052 32.7278 304.781C32.9161 305.593 33.3557 304.896 33.5617 304.215C33.0616 302.7 31.9215 299.583 31.3625 299.23C30.8035 298.878 30.1271 297.763 29.8588 297.249C29.3975 296.117 28.7048 295.493 28.1359 295.18C27.7185 294.949 27.2044 295.279 27.6344 295.488C28.0997 295.715 29.7601 297.973 30.5321 299.073Z" fill="#530B06"/>
<path d="M115.634 262.988C122.154 253.461 114.563 250.68 109.425 250.526C96.4559 251.227 95.5756 259.567 96.7565 263.649C99.1317 270.827 104.99 270.329 109.465 268.337C111.992 267.213 114.072 265.271 115.634 262.988Z" fill="#A00322"/>
<path d="M116.465 251.817C113.225 247.68 113.103 244.182 102.436 247.542L91.6089 252.502L91.1291 253.765C89.3917 271.507 111.988 270.885 118.07 257.289L116.465 251.817Z" fill="#E53461"/>
<path d="M118.014 256.743C107.202 266.098 95.5858 258.656 91.1289 253.766C89.3321 272.011 111.901 271.115 118.07 257.29L118.014 256.743Z" fill="#860130"/>
<path d="M97.2737 251.491C102.119 254.803 110.303 251.985 112.405 250.722C112.846 249.837 112.169 249.843 111.775 249.956C107.768 252.75 99.8717 252.039 97.8092 250.773C97.0036 250.678 97.1166 251.212 97.2737 251.491Z" fill="#860130"/>
<path d="M97.8954 254.357C97.1852 253.456 97.9564 253.504 98.4308 253.64C104.967 257.489 111.203 254.411 113.505 252.391C114.532 251.624 114.593 252.41 114.496 252.899C107.875 258.698 100.67 256.288 97.8954 254.357Z" fill="#860130"/>
<path d="M37.1472 291.806L37.3266 291.422C37.6096 290.817 37.9978 290.267 38.4731 289.798L40.9869 287.317C42.0424 286.275 42.8587 285.016 43.3789 283.627C43.6111 283.006 43.903 282.41 44.2506 281.847L44.2797 281.8C44.7848 280.98 45.4053 280.238 46.1221 279.596L46.1526 279.568C46.6912 279.086 47.2823 278.665 47.9148 278.314L48.3973 278.047C49.173 277.616 50.0249 277.341 50.9056 277.236C51.9634 277.109 53.0362 277.232 54.0384 277.593L54.2785 277.679C54.8708 277.892 55.4353 278.176 55.9597 278.525L56.6692 278.996C57.4101 279.489 58.2729 279.766 59.1619 279.798L60.9811 279.872C61.7971 279.905 62.5919 280.141 63.2932 280.559L63.4992 280.682C64.1776 281.087 64.7243 281.679 65.0731 282.388L65.1588 282.562C65.5058 283.267 65.6073 284.068 65.4473 284.837C65.2951 285.568 64.9145 286.232 64.3603 286.733L63.8909 287.158C63.2293 287.756 62.4314 288.183 61.5667 288.402L59.9084 288.822C58.8715 289.084 57.8731 289.48 56.9383 290L55.9352 290.558L49.4452 295.379C48.7155 295.921 47.9093 296.351 47.053 296.656C46.1011 296.995 45.0998 297.174 44.0895 297.187L42.1791 297.21C41.6732 297.216 41.168 297.171 40.6714 297.074L39.3851 296.824C38.7481 296.7 38.1637 296.385 37.7093 295.922C37.1369 295.338 36.8092 294.558 36.7932 293.741L36.7884 293.498C36.777 292.914 36.8997 292.335 37.1472 291.806Z" fill="#FDE5CE"/>
<path d="M44.9836 281.55L44.7027 281.964C44.196 282.712 43.7766 283.514 43.4527 284.357L42.7106 286.287C42.6563 286.428 42.5762 286.558 42.4744 286.67L41.0033 288.283C40.4102 288.934 40.3638 289.914 40.893 290.618C41.0173 290.783 41.1689 290.926 41.3413 291.04L42.033 291.499C42.2932 291.672 42.5934 291.774 42.9047 291.797L44.3178 291.902L44.4506 291.907C45.6408 291.953 46.8313 291.828 47.986 291.535L46.8188 292.172C46.3164 292.445 45.7815 292.655 45.2268 292.795L45.1524 292.814C44.2911 293.032 43.394 293.07 42.5172 292.926L42.1329 292.862C41.7543 292.8 41.3872 292.681 41.0435 292.511L40.031 292.008C39.8587 291.922 39.6615 291.901 39.4751 291.948C39.1967 292.019 38.977 292.232 38.8982 292.508L38.7082 293.174C38.5681 293.666 38.6205 294.192 38.8547 294.646L38.9885 294.905C39.3702 295.645 40.0671 296.172 40.883 296.337L41.928 296.549C42.3415 296.632 42.7639 296.663 43.1852 296.64L43.9577 296.598C44.7136 296.557 45.4594 296.404 46.1712 296.147C47.1591 295.789 48.0638 295.233 48.8299 294.514L52.8587 290.732C53.9624 289.696 55.1674 288.774 56.4558 287.979L57.2195 287.508C57.684 287.222 58.1695 286.971 58.672 286.758L60.6101 285.937C61.0054 285.77 61.3521 285.505 61.6181 285.168L61.7771 284.967C62.2197 284.407 62.345 283.659 62.1092 282.984C61.8441 282.227 61.1681 281.688 60.3705 281.599L59.827 281.539L58.4123 281.283C58.0624 281.22 57.7209 281.116 57.3945 280.975L57.3557 280.959C56.6293 280.644 55.9988 280.144 55.5279 279.508C54.7398 278.444 53.5225 277.782 52.201 277.698L52.0255 277.687C51.4077 277.648 50.7881 277.727 50.1998 277.92L49.4931 278.151C48.5604 278.457 47.6858 278.918 46.9062 279.514C46.16 280.085 45.5108 280.773 44.9836 281.55Z" fill="#FFFAF5"/>
<path d="M54.4036 286.283C55.2038 285.228 55.6504 284.153 56.6787 285.325C56.7811 285.402 56.9351 285.473 56.732 285.142C56.5785 284.892 56.445 284.82 56.3636 284.814L57.1641 284.674C57.3316 284.618 57.5646 284.497 57.1567 284.462C56.7487 284.428 55.8196 284.711 55.406 284.856C55.7545 284.562 56.7643 283.854 58.0155 283.375C58.3676 283.181 58.8406 282.856 57.9163 283.106C56.992 283.356 55.9679 284.111 55.5714 284.457C55.8445 284.005 56.5079 283.029 56.9765 282.746C57.445 282.464 58.0288 282.055 58.2621 281.886C58.4562 281.738 58.7087 281.489 58.165 281.677C57.9299 281.796 57.3262 282.148 56.792 282.602C56.9335 282.375 57.2689 281.878 57.478 281.701C57.6871 281.525 58.2024 281.042 58.4339 280.822C58.6167 280.634 58.8468 280.318 58.3049 280.554L57.3767 281.373C57.4958 281.076 57.7198 280.418 57.6627 280.154C57.6055 279.89 57.4817 280.11 57.4269 280.253C57.3447 280.467 57.1324 281.061 56.9403 281.72L56.2959 282.951C56.3791 282.485 56.5313 281.487 56.4742 281.223C56.4027 280.893 56.2812 280.837 56.1776 281.294C56.0741 281.751 56.247 282.258 56.091 283.08C55.9663 283.737 55.4764 284.36 55.247 284.59C55.2972 284.034 55.3812 282.796 55.3155 282.291C55.3134 281.948 55.2686 281.471 55.1064 282.298C55.0737 282.501 55.0261 283.074 55.0978 283.749C54.9904 283.531 54.7383 283.054 54.589 282.89C54.4023 282.685 54.286 282.78 54.478 283.136C54.67 283.492 54.9804 283.813 54.9932 284.176L55.0219 284.99C54.7193 285.454 54.6331 285.714 54.0997 286.192C54.0638 286.304 54.1424 286.341 54.4036 286.283Z" fill="#40D05F"/>
<path d="M30.982 341.703L33.8528 347.123C34.2194 347.815 34.5063 348.546 34.7081 349.303L34.969 350.281C35.3848 351.84 35.2772 353.493 34.6626 354.985L34.1537 356.22C33.8542 356.948 33.3189 357.553 32.6339 357.939C31.0936 358.808 29.1475 358.394 28.0943 356.974L27.4587 356.116C26.7876 355.211 26.4628 354.096 26.5429 352.972L26.7534 350.019C26.8312 348.927 27.0498 347.849 27.4037 346.813L29.0984 341.852C29.3898 340.998 30.5599 340.906 30.982 341.703Z" fill="#DC143C"/>
<path d="M19.6 325.371L19.7793 326.369C19.8573 326.804 19.8655 327.248 19.8034 327.685L19.7077 328.359C19.4546 330.14 18.4626 331.732 16.9751 332.745L16.1492 333.307C15.499 333.749 14.7189 333.96 13.9343 333.906C12.1702 333.784 10.7729 332.367 10.6749 330.602L10.6253 329.708C10.5574 328.484 10.9896 327.285 11.8228 326.386L14.2215 323.797C14.6837 323.298 15.2956 322.963 15.9649 322.843C17.6668 322.537 19.2943 323.669 19.6 325.371Z" fill="#DC143C"/>
</svg>
