<svg width="60" height="60" viewBox="0 0 60 60" fill="none" xmlns="http://www.w3.org/2000/svg">
<g clip-path="url(#clip0_2433_25014)">
<path d="M29.9044 12.8501C30.2155 12.9146 30.4103 12.7791 30.7022 12.6597C31.627 12.4716 32.4813 12.5543 33.3097 13.0332C34.1221 13.5962 34.6103 14.2621 34.8038 15.2378C34.9137 16.0868 34.7749 16.843 34.3351 17.5816C33.737 18.341 33.0358 19.0121 32.3502 19.6909C32.2477 19.7929 32.1452 19.8949 32.0396 19.9999C31.7894 20.2488 31.5389 20.4973 31.2882 20.7456C31.4161 20.757 31.4161 20.757 31.5466 20.7686C37.8484 21.3447 43.7969 23.4792 48.4708 27.868C48.7139 28.0955 48.9626 28.3104 49.2179 28.524C54.0249 32.724 57.0048 39.6065 57.4759 45.8856C57.5062 46.3726 57.5259 46.8594 57.5382 47.3472C57.6766 47.3418 57.8149 47.3363 57.9575 47.3307C58.14 47.3263 58.3225 47.3221 58.505 47.3179C58.6416 47.312 58.6416 47.312 58.781 47.306C59.213 47.2986 59.4564 47.2991 59.8252 47.539C60.1711 48.0898 60.0684 48.7145 59.9991 49.3394C59.6868 50.6941 58.8745 51.6847 57.7726 52.5034C56.9471 52.9692 56.1892 53.1072 55.2468 53.1048C55.1583 53.105 55.0697 53.1053 54.9785 53.1055C54.6807 53.1062 54.3829 53.106 54.0851 53.1058C53.8699 53.1061 53.6546 53.1065 53.4394 53.1069C52.8471 53.1078 52.2547 53.1081 51.6624 53.1081C51.0239 53.1084 50.3854 53.1092 49.7469 53.11C48.3503 53.1116 46.9537 53.1123 45.5572 53.1128C44.6853 53.1132 43.8134 53.1137 42.9415 53.1142C40.5279 53.1156 38.1143 53.1168 35.7007 53.1172C35.469 53.1173 35.469 53.1173 35.2326 53.1173C35.0761 53.1173 34.9197 53.1174 34.7633 53.1174C34.4495 53.1174 34.1356 53.1175 33.8218 53.1175C33.744 53.1175 33.6662 53.1176 33.586 53.1176C31.0632 53.118 28.5403 53.1199 26.0174 53.1226C23.3496 53.1255 20.6817 53.1271 18.0139 53.1272C16.5598 53.1273 15.1058 53.128 13.6517 53.1301C12.4135 53.1319 11.1754 53.1325 9.93729 53.1316C9.30558 53.1311 8.67389 53.1312 8.04219 53.1329C7.46367 53.1344 6.88517 53.1342 6.30665 53.1328C6.09759 53.1326 5.88852 53.1329 5.67946 53.134C3.87674 53.1422 2.58068 52.903 1.20761 51.6685C0.397464 50.8243 -0.0124326 49.7284 -0.0375061 48.5777C-0.0418869 48.4459 -0.0462677 48.3142 -0.0507812 48.1785C-0.00088501 47.8159 -0.00088501 47.8159 0.171692 47.5358C0.607768 47.2581 0.988045 47.2961 1.49326 47.3179C1.58616 47.32 1.67906 47.3221 1.77478 47.3243C2.00327 47.3298 2.23168 47.3382 2.46005 47.3472C2.46307 47.2289 2.46609 47.1106 2.46921 46.9888C2.65269 41.7719 4.4147 36.5702 7.49911 32.3472C7.54774 32.2805 7.59636 32.2138 7.64646 32.1451C8.21487 31.3731 8.8166 30.6376 9.46704 29.9325C9.64075 29.744 9.81194 29.5532 9.98065 29.3603C10.63 28.6187 11.3215 27.95 12.0694 27.3081C12.1362 27.2504 12.203 27.1926 12.2718 27.1332C12.4831 26.9521 12.6969 26.7745 12.9117 26.5977C12.9771 26.5417 13.0424 26.4858 13.1098 26.4281C13.6158 26.0215 13.9968 25.9188 14.6476 25.9019C14.9918 26.0777 14.9918 26.0777 15.2335 26.3706C15.3605 26.8073 15.4116 27.0604 15.217 27.4775C14.958 27.8334 14.6829 28.0403 14.3253 28.2969C9.01763 32.2305 5.74727 38.4209 4.78604 44.8824C4.67898 45.6648 4.63026 46.4392 4.56943 47.23C21.3917 47.2687 38.214 47.3074 55.546 47.3472C55.5073 47.2699 55.4686 47.1925 55.4288 47.1128C55.406 46.8621 55.3838 46.6112 55.365 46.3601C54.8561 39.6787 51.6682 33.4934 46.6828 29.0435C42.034 25.1005 36.1329 22.8774 30.0357 22.9209C29.9289 22.9213 29.8221 22.9216 29.7121 22.922C27.9731 22.9305 26.3068 23.0391 24.6085 23.4409C24.4963 23.4673 24.3841 23.4937 24.2685 23.5208C22.3152 23.9933 20.483 24.6404 18.6971 25.5626C18.1472 25.8371 17.7381 25.9798 17.1085 25.9019C16.6758 25.5981 16.5426 25.4283 16.4493 24.9058C16.5434 24.3787 16.7035 24.2554 17.1085 23.9097C17.4273 23.7164 17.7584 23.5591 18.0973 23.4043C18.1947 23.3593 18.2921 23.3143 18.3925 23.268C21.6868 21.777 25.116 21.0241 28.7101 20.7456C28.6238 20.6618 28.5375 20.578 28.4486 20.4916C28.1259 20.1774 27.8048 19.8617 27.4841 19.5454C27.3456 19.4093 27.2068 19.2736 27.0674 19.1384C26.8661 18.9428 26.6665 18.7458 26.467 18.5484C26.4053 18.4891 26.3437 18.4299 26.2801 18.3688C25.5816 17.6707 25.1843 16.8541 25.1651 15.8604C25.1835 14.8158 25.499 14.1152 26.2203 13.3569C27.3108 12.4105 28.5867 12.4743 29.9044 12.8501ZM27.3038 15.2378C27.1692 15.6813 27.1183 15.922 27.3287 16.3411C27.5555 16.6692 27.8014 16.9338 28.0852 17.214C28.1898 17.3178 28.2944 17.4217 28.4022 17.5287C28.511 17.6356 28.6199 17.7425 28.732 17.8526C28.8434 17.9628 28.9547 18.073 29.066 18.1833C29.3374 18.452 29.6094 18.7202 29.8819 18.9878C30.5578 18.6984 31.0299 18.1271 31.5445 17.6182C31.6532 17.5143 31.7619 17.4105 31.8739 17.3035C32.0288 17.1504 32.0288 17.1504 32.1868 16.9943C32.2814 16.9019 32.376 16.8095 32.4734 16.7143C32.7494 16.334 32.7901 16.0548 32.8116 15.5894C32.627 15.1618 32.4053 14.8704 31.9913 14.6519C31.4846 14.5862 31.2534 14.5958 30.8268 14.8863C30.3779 15.1794 30.0535 15.2301 29.5304 15.1206C29.2945 14.9666 29.0601 14.8104 28.8272 14.6519C28.1195 14.5381 27.7782 14.7069 27.3038 15.2378ZM2.22568 49.3394C2.54732 50.1435 3.01212 50.5409 3.74911 50.98C4.18286 51.1312 4.62443 51.1138 5.0782 51.1126C5.16551 51.1128 5.25283 51.1131 5.34279 51.1133C5.63701 51.114 5.93122 51.1138 6.22544 51.1137C6.43786 51.114 6.65028 51.1143 6.8627 51.1147C7.44773 51.1157 8.03275 51.1159 8.61777 51.116C9.24822 51.1162 9.87867 51.1171 10.5091 51.1178C11.8882 51.1194 13.2674 51.1201 14.6465 51.1207C15.5073 51.121 16.3681 51.1215 17.229 51.122C19.6115 51.1234 21.994 51.1246 24.3765 51.125C24.5291 51.1251 24.6816 51.1251 24.8388 51.1251C24.9916 51.1251 25.1445 51.1252 25.3021 51.1252C25.6119 51.1252 25.9218 51.1253 26.2316 51.1254C26.4621 51.1254 26.4621 51.1254 26.6973 51.1254C29.1883 51.1259 31.6793 51.1279 34.1702 51.1307C36.7266 51.1334 39.2829 51.1349 41.8392 51.135C43.2749 51.1351 44.7107 51.1358 46.1464 51.1379C47.3689 51.1398 48.5913 51.1404 49.8137 51.1394C50.4376 51.1389 51.0614 51.139 51.6852 51.1407C52.2563 51.1422 52.8274 51.142 53.3984 51.1406C53.605 51.1404 53.8117 51.1408 54.0183 51.1418C54.2992 51.1431 54.5801 51.1422 54.861 51.1408C54.9412 51.1417 55.0213 51.1426 55.1039 51.1435C56.0471 51.1333 56.7558 50.8094 57.421 50.1597C57.6979 49.7821 57.6979 49.7821 57.7726 49.3394C39.4421 49.3394 21.1116 49.3394 2.22568 49.3394Z" fill="#DC143C"/>
<path d="M5.15625 6.91271C5.5283 7.18185 5.71673 7.34426 5.79254 7.80397C5.72062 8.37213 5.45944 8.78612 5.17822 9.27843C4.35276 10.796 3.88257 12.3407 4.30801 14.073C4.4167 14.3574 4.53809 14.6165 4.6875 14.8815C4.75276 14.9975 4.81802 15.1135 4.88525 15.233C5.13228 15.5535 5.39254 15.839 5.66895 16.1339C6.20645 16.7244 6.58284 17.3207 6.91406 18.0455C6.96255 18.147 7.01104 18.2485 7.06101 18.3531C7.74072 20.0205 7.50383 22.0149 6.91406 23.6705C6.87025 23.7942 6.82645 23.918 6.78131 24.0454C6.01232 26.0341 6.01232 26.0341 5.2739 26.5196C4.89209 26.6506 4.60435 26.5794 4.21875 26.483C3.93311 26.2926 3.93311 26.2926 3.75 26.0143C3.68214 25.343 3.8191 24.9985 4.18213 24.4396C5.08535 22.957 5.58825 21.3011 5.1915 19.5612C4.86012 18.5558 4.30021 17.7778 3.57422 17.0201C2.39732 15.748 2.01162 14.1112 1.99219 12.4205C2.07938 10.7058 2.78902 8.25103 4.10477 7.04683C4.47329 6.83301 4.74007 6.85429 5.15625 6.91271Z" fill="#DC143C"/>
<path d="M55.2564 6.84961C55.7467 6.92842 55.8952 7.04339 56.2525 7.38428C56.455 7.67145 56.6187 7.97319 56.7798 8.28516C56.8253 8.37267 56.8707 8.46018 56.9176 8.55034C57.9105 10.5318 58.362 12.7481 57.6541 14.9035C57.2481 15.9382 56.7147 16.7607 55.9522 17.5649C54.9776 18.6168 54.6576 19.7829 54.6897 21.1881C54.7654 22.5366 55.3446 23.7099 56.068 24.8237C56.2827 25.258 56.3009 25.5384 56.2525 26.0171C56.003 26.3962 55.8217 26.4739 55.3882 26.6104C54.9397 26.6026 54.7523 26.5349 54.4319 26.2222C52.8786 24.3664 52.4124 21.7997 52.6197 19.4546C52.8494 18.0777 53.5645 17.0141 54.502 16.0122C55.5151 14.9085 55.8427 13.6996 55.8148 12.2448C55.7611 10.9949 55.2289 9.95864 54.6116 8.89719C54.3383 8.41543 54.1762 8.07195 54.2603 7.50146C54.5666 7.07443 54.734 6.93357 55.2564 6.84961Z" fill="#DC143C"/>
<path d="M45.5884 6.91528C46.2345 7.26201 46.5435 7.92922 46.8774 8.55591C46.9179 8.62676 46.9584 8.6976 47.0001 8.7706C47.4246 9.65771 47.3541 10.8868 47.1562 11.834C46.8784 12.6129 46.3559 13.2097 45.8227 13.8293C45.3423 14.4093 45.1093 14.7998 45.1343 15.5725C45.2448 16.2542 45.5702 16.8055 45.9692 17.3596C46.2109 17.7567 46.2616 17.9436 46.1743 18.3997C45.8644 18.8452 45.6721 18.9664 45.1416 19.0881C44.6862 19.0555 44.4721 18.8699 44.1601 18.5461C43.3296 17.5129 42.8738 16.2095 43.0102 14.884C43.226 13.8341 43.5997 13.1051 44.2993 12.3059C44.4327 12.1338 44.5647 11.9605 44.6948 11.7859C44.7513 11.7111 44.8078 11.6363 44.866 11.5593C45.2202 11.0636 45.1943 10.5516 45.1196 9.96216C44.9294 9.4466 44.6826 8.97897 44.3419 8.54721C44.0886 8.18949 44.1225 7.92621 44.1821 7.50122C44.583 6.9303 44.9022 6.805 45.5884 6.91528Z" fill="#DC143C"/>
<path d="M15.2321 6.91435C15.6481 7.20647 15.7931 7.3824 15.8986 7.88114C15.8033 8.40095 15.6041 8.69802 15.2916 9.11619C14.8596 9.74956 14.753 10.3825 14.8805 11.1331C15.1448 11.6937 15.5415 12.1448 15.9498 12.6053C16.6912 13.4475 17.0575 14.5188 17.0265 15.6389C16.8935 16.7248 16.4916 17.662 15.818 18.5159C15.7455 18.615 15.673 18.7141 15.5983 18.8162C15.2148 19.0756 14.8599 19.0574 14.4118 18.9847C14.1261 18.8675 14.1261 18.8675 13.943 18.6331C13.8121 18.2473 13.7644 18.0851 13.8258 17.6956C14.0091 17.3485 14.2203 17.0346 14.4433 16.7119C14.7856 16.1966 14.8882 15.802 14.8659 15.1761C14.6915 14.4786 14.3694 14.0171 13.8917 13.4988C12.9581 12.4708 12.705 11.3628 12.7313 10.0129C12.791 8.84926 13.391 7.86542 14.1774 7.03153C14.5452 6.84763 14.8264 6.8731 15.2321 6.91435Z" fill="#DC143C"/>
</g>
<defs>
<clipPath id="clip0_2433_25014">
<rect width="60" height="60" fill="white"/>
</clipPath>
</defs>
</svg>
