<svg width="24" height="24" viewBox="0 0 24 24" fill="none" xmlns="http://www.w3.org/2000/svg">
<mask id="path-1-inside-1_2433_24927" fill="white">
<path fill-rule="evenodd" clip-rule="evenodd" d="M7.68091 3.13968C7.84286 3.02441 8.04394 2.97815 8.23998 3.01106C8.43602 3.04397 8.61098 3.15335 8.72641 3.31518L8.72941 3.31968L8.73691 3.32868L8.75641 3.35868C8.84872 3.49641 8.93335 3.63912 9.00991 3.78618C9.13291 4.02468 9.32191 4.44168 9.32191 4.87518C9.32191 5.30868 9.13291 5.72568 9.00991 5.96418C8.93286 6.11128 8.84773 6.254 8.75491 6.39168L8.73691 6.42168L8.73091 6.42768L8.72341 6.44118C8.66561 6.52982 8.61253 6.62144 8.56441 6.71568C8.49346 6.83964 8.4452 6.97527 8.42191 7.11618C8.42191 7.17168 8.46091 7.32168 8.56441 7.52868C8.61274 7.62602 8.66632 7.72066 8.72491 7.81218L8.73391 7.82568M8.73391 7.82568C8.8465 7.98979 8.88928 8.19189 8.85285 8.38754C8.81642 8.58319 8.70376 8.75635 8.53966 8.86893C8.37556 8.98152 8.17345 9.0243 7.97781 8.98787C7.78216 8.95144 7.609 8.83879 7.49641 8.67468V8.67018L7.49341 8.66718L7.48741 8.65818L7.46791 8.62818C7.37745 8.48837 7.29483 8.34365 7.22041 8.19468C7.10041 7.95468 6.91891 7.53468 6.92191 7.10268C6.92641 6.67968 7.10791 6.27018 7.22641 6.03618C7.29975 5.89141 7.38087 5.7507 7.46941 5.61468L7.48891 5.58468L7.49491 5.57568L7.49791 5.57268L7.50391 5.56518L7.51441 5.55018C7.5738 5.46117 7.62837 5.36903 7.67791 5.27418C7.74922 5.15079 7.79799 5.01568 7.82191 4.87518C7.79799 4.73469 7.74922 4.59958 7.67791 4.47618C7.62793 4.38079 7.57285 4.28816 7.51291 4.19868L7.50541 4.18518C7.39014 4.02324 7.34238 3.82215 7.37529 3.62611C7.40819 3.43007 7.51908 3.25512 7.68091 3.13968M12.1434 1.63968C12.0632 1.58237 11.9724 1.54145 11.8763 1.51925C11.7803 1.49705 11.6808 1.49402 11.5835 1.51032C11.4863 1.52662 11.3932 1.56194 11.3096 1.61425C11.226 1.66656 11.1536 1.73484 11.0964 1.81518L11.0934 1.81968L11.0859 1.82868L11.0664 1.85868C10.9741 1.99641 10.8895 2.13912 10.8129 2.28618C10.6899 2.52468 10.5009 2.94168 10.5009 3.37518C10.5009 3.80868 10.6899 4.22568 10.8129 4.46418C10.89 4.61128 10.9751 4.754 11.0679 4.89168L11.0859 4.92168L11.0919 4.92768L11.0994 4.94118C11.1572 5.02982 11.2103 5.12144 11.2584 5.21568C11.3294 5.33964 11.3776 5.47527 11.4009 5.61618C11.3795 5.76114 11.3317 5.90095 11.2599 6.02868C11.2111 6.12606 11.157 6.2207 11.0979 6.31218L11.0889 6.32568M11.0889 6.32568C10.9763 6.48979 10.9335 6.69189 10.97 6.88754C11.0064 7.08319 11.1191 7.25635 11.2832 7.36893C11.4473 7.48152 11.6494 7.5243 11.845 7.48787C12.0407 7.45144 12.2138 7.33879 12.3264 7.17468V7.17018L12.3294 7.16718L12.3354 7.15818L12.3549 7.12818C12.4454 6.98837 12.528 6.84365 12.6024 6.69468C12.7224 6.45468 12.9039 6.03468 12.9009 5.60268C12.8964 5.17968 12.7149 4.77018 12.5964 4.53618C12.5231 4.3914 12.442 4.2507 12.3534 4.11468L12.3339 4.08468L12.3279 4.07718L12.3249 4.07268L11.7054 4.50018L12.3219 4.07268L12.3174 4.06518L12.3069 4.05018C12.2475 3.96117 12.193 3.86903 12.1434 3.77418C12.0726 3.65069 12.0244 3.51558 12.0009 3.37518C12.0009 3.32418 12.0399 3.18018 12.1449 2.97618C12.1949 2.88079 12.25 2.78816 12.3099 2.69868L12.3174 2.68518C12.4327 2.52324 12.4804 2.32215 12.4475 2.12611C12.4146 1.93007 12.3052 1.75512 12.1434 1.63968M16.6434 3.13968C16.5632 3.08237 16.4724 3.04145 16.3763 3.01925C16.2803 2.99705 16.1808 2.99402 16.0835 3.01032C15.9863 3.02662 15.8932 3.06194 15.8096 3.11425C15.726 3.16656 15.6536 3.23484 15.5964 3.31518L15.5934 3.31968L15.5859 3.32868L15.5664 3.35868L15.5019 3.45618C15.4509 3.53718 15.3819 3.65118 15.3129 3.78618C15.1899 4.02468 15.0009 4.44168 15.0009 4.87518C15.0009 5.30868 15.1899 5.72568 15.3129 5.96418C15.39 6.11128 15.4751 6.254 15.5679 6.39168L15.5859 6.42168L15.5904 6.42768L15.5994 6.44118C15.6572 6.52982 15.7103 6.62144 15.7584 6.71568C15.8294 6.83964 15.8776 6.97527 15.9009 7.11618C15.879 7.26124 15.8307 7.40105 15.7584 7.52868C15.7101 7.62602 15.6565 7.72066 15.5979 7.81218L15.5889 7.82568M15.5889 7.82568C15.4763 7.98979 15.4335 8.19189 15.47 8.38754C15.5064 8.58319 15.6191 8.75635 15.7832 8.86893C15.9473 8.98152 16.1494 9.0243 16.345 8.98787C16.5407 8.95144 16.7138 8.83879 16.8264 8.67468V8.67018L16.8294 8.66718L16.8354 8.65818L16.8549 8.62818C16.9454 8.48837 17.028 8.34365 17.1024 8.19468C17.2224 7.95468 17.4039 7.53468 17.4009 7.10268C17.3979 6.67968 17.2164 6.27018 17.0964 6.03618C17.0231 5.89141 16.942 5.7507 16.8534 5.61468L16.8339 5.58468L16.8279 5.57718L16.8249 5.57268L16.2069 5.99868L16.8234 5.57118L16.8174 5.56368L16.8099 5.54868L16.7694 5.48868C16.7249 5.41844 16.6834 5.34638 16.6449 5.27268C16.5738 5.14975 16.525 5.01516 16.5009 4.87518C16.5009 4.82418 16.5399 4.68018 16.6449 4.47618C16.6949 4.38079 16.75 4.28816 16.8099 4.19868L16.8174 4.18518C16.9327 4.02324 16.9804 3.82215 16.9475 3.62611C16.9146 3.43007 16.8052 3.25512 16.6434 3.13968"/>
</mask>
<path d="M8.72641 3.31518L8.33955 2.77224L7.72905 3.20724L8.11591 3.75018L8.50277 4.29312L9.11327 3.85812L8.72641 3.31518ZM7.49641 8.67468L7.87325 9.22463L8.49275 8.80013L8.11591 8.25018L7.73907 7.70024L7.11957 8.12474L7.49641 8.67468ZM7.49791 5.57268L7.11865 6.12096L7.73665 6.54846L8.11591 6.00018L8.49518 5.45191L7.87718 5.02441L7.49791 5.57268ZM11.0964 1.81518L10.7096 2.35812L11.3201 2.79312L11.7069 2.25018L12.0938 1.70724L11.4833 1.27224L11.0964 1.81518ZM12.3264 7.17468L12.7032 6.62474L12.0837 6.20024L11.7069 6.75018L11.3301 7.30013L11.9496 7.72463L12.3264 7.17468ZM15.5964 3.31518L15.2096 3.85812L15.8201 4.29312L16.2069 3.75018L16.5938 3.20724L15.9833 2.77225L15.5964 3.31518ZM16.8264 8.67468L17.2032 8.12474L16.5837 7.70024L16.2069 8.25018L15.8301 8.80013L16.4496 9.22463L16.8264 8.67468ZM7.68091 3.13968L6.90773 2.05342L6.90664 2.05419L7.68091 3.13968ZM8.72641 3.31518L9.83584 2.57562L9.82415 2.55808L9.8119 2.54092L8.72641 3.31518ZM8.72941 3.31968L7.61998 4.05924L7.65951 4.11853L7.70512 4.17327L8.72941 3.31968ZM8.73691 3.32868L9.85484 2.60203L9.81178 2.53579L9.7612 2.4751L8.73691 3.32868ZM8.75641 3.35868L7.63849 4.08534L7.64362 4.09323L7.64886 4.10105L8.75641 3.35868ZM9.00991 3.78618L10.1949 3.17504L10.1926 3.17049L9.00991 3.78618ZM9.00991 5.96418L10.1911 6.58286L10.1949 6.57533L9.00991 5.96418ZM8.75491 6.39168L7.64935 5.64636L7.62969 5.67552L7.61159 5.70569L8.75491 6.39168ZM8.73691 6.42168L9.67972 7.36449L9.79578 7.24843L9.88023 7.10768L8.73691 6.42168ZM8.73091 6.42768L7.7881 5.48487L7.65606 5.61692L7.56537 5.78017L8.73091 6.42768ZM8.72341 6.44118L9.84022 7.16955L9.86602 7.12999L9.88896 7.0887L8.72341 6.44118ZM8.56441 6.71568L9.72157 7.37808L9.7374 7.35042L9.75189 7.32205L8.56441 6.71568ZM8.42191 7.11618L7.10642 6.89879L7.08858 7.00676V7.11618H8.42191ZM8.56441 7.52868L9.75866 6.93577L9.75698 6.9324L8.56441 7.52868ZM8.72491 7.81218L7.602 8.5311L7.60866 8.54151L7.61552 8.5518L8.72491 7.81218ZM8.73391 7.82568L7.62452 8.5653L7.62944 8.57267L7.63445 8.57998L8.73391 7.82568ZM7.49641 8.67468H6.16308V9.08809L6.39695 9.42898L7.49641 8.67468ZM7.49641 8.67018H8.82975V8.1179L8.43922 7.72738L7.49641 8.67018ZM7.49341 8.66718L6.38398 9.40674L6.45723 9.51662L6.5506 9.60999L7.49341 8.66718ZM7.48741 8.65818L6.36949 9.38484L6.3737 9.39131L6.37798 9.39774L7.48741 8.65818ZM7.46791 8.62818L6.34845 9.35248L6.34999 9.35484L7.46791 8.62818ZM7.22041 8.19468L8.4132 7.59884L8.41298 7.5984L7.22041 8.19468ZM6.92191 7.10268L5.58864 7.0885L5.58861 7.09343L6.92191 7.10268ZM7.22641 6.03618L6.03698 5.43366L6.03691 5.43381L7.22641 6.03618ZM7.46941 5.61468L8.58684 6.3421L8.58734 6.34134L7.46941 5.61468ZM7.48891 5.58468L6.37948 4.84512L6.3752 4.85155L6.37099 4.85803L7.48891 5.58468ZM7.49491 5.57568L6.55216 4.63282L6.45875 4.72622L6.38548 4.83612L7.49491 5.57568ZM7.49791 5.57268L8.44067 6.51555L8.49292 6.4633L8.53909 6.40559L7.49791 5.57268ZM7.50391 5.56518L8.54509 6.39809L8.57175 6.36476L8.59622 6.3298L7.50391 5.56518ZM7.51441 5.55018L8.60672 6.3148L8.6153 6.30255L8.62359 6.29011L7.51441 5.55018ZM7.67791 5.27418L6.5235 4.60702L6.50925 4.63168L6.49606 4.65692L7.67791 5.27418ZM7.82191 4.87518L9.13632 5.09902L9.17444 4.87518L9.13632 4.65135L7.82191 4.87518ZM7.67791 4.47618L6.49686 5.09496L6.50968 5.11943L6.5235 5.14335L7.67791 4.47618ZM7.51291 4.19868L6.34737 4.84622L6.37431 4.89471L6.40519 4.9408L7.51291 4.19868ZM7.50541 4.18518L8.67095 3.53765L8.63482 3.47262L8.59168 3.41201L7.50541 4.18518ZM12.1434 1.63968L11.3685 2.72469L11.3691 2.72517L12.1434 1.63968ZM11.0964 1.81518L10.01 1.04218L9.99825 1.05873L9.98698 1.07562L11.0964 1.81518ZM11.0934 1.81968L12.1177 2.67328L12.1633 2.61854L12.2028 2.55924L11.0934 1.81968ZM11.0859 1.82868L10.0616 0.975087L10.011 1.03578L9.96799 1.10203L11.0859 1.82868ZM11.0664 1.85868L12.174 2.60105L12.1792 2.59323L12.1843 2.58534L11.0664 1.85868ZM10.8129 2.28618L9.63024 1.67048L9.62789 1.67504L10.8129 2.28618ZM10.8129 4.46418L9.62787 5.07534L9.63179 5.08284L10.8129 4.46418ZM11.0679 4.89168L12.2112 4.20569L12.1931 4.17552L12.1735 4.14636L11.0679 4.89168ZM11.0859 4.92168L9.94259 5.60768L10.027 5.74843L10.1431 5.86449L11.0859 4.92168ZM11.0919 4.92768L12.2574 4.28014L12.1668 4.11691L12.0347 3.98488L11.0919 4.92768ZM11.0994 4.94118L9.93388 5.58873L9.95681 5.63L9.9826 5.66955L11.0994 4.94118ZM11.2584 5.21568L10.0709 5.82205L10.0854 5.85042L10.1013 5.87808L11.2584 5.21568ZM11.4009 5.61618L12.7199 5.8111L12.7504 5.60467L12.7164 5.39879L11.4009 5.61618ZM11.2599 6.02868L10.0976 5.37543L10.0821 5.40294L10.068 5.43115L11.2599 6.02868ZM11.0979 6.31218L12.2073 7.05176L12.2126 7.04378L12.2179 7.03572L11.0979 6.31218ZM11.0889 6.32568L12.1884 7.07998L12.1934 7.07265L12.1983 7.06526L11.0889 6.32568ZM12.3264 7.17468L13.4259 7.92898L13.6597 7.58809V7.17468H12.3264ZM12.3264 7.17018L11.3835 6.22749L10.9931 6.61799V7.17018H12.3264ZM12.3294 7.16718L13.2723 8.10988L13.3656 8.01655L13.4388 7.90674L12.3294 7.16718ZM12.3354 7.15818L13.4448 7.89774L13.4491 7.89132L13.4533 7.88485L12.3354 7.15818ZM12.3549 7.12818L13.4728 7.85486L13.4744 7.85248L12.3549 7.12818ZM12.6024 6.69468L11.4098 6.0984L11.4096 6.09884L12.6024 6.69468ZM12.9009 5.60268L14.2342 5.59342L14.2342 5.5885L12.9009 5.60268ZM12.5964 4.53618L13.7859 3.93381L13.7858 3.93366L12.5964 4.53618ZM12.3534 4.11468L11.2355 4.84132L11.236 4.8421L12.3534 4.11468ZM12.3339 4.08468L13.4518 3.35805L13.4161 3.30304L13.3751 3.25181L12.3339 4.08468ZM12.3279 4.07718L11.2186 4.81699L11.2507 4.865L11.2867 4.91006L12.3279 4.07718ZM12.3249 4.07268L13.4342 3.33288L12.6826 2.2059L11.5676 2.97528L12.3249 4.07268ZM11.7054 4.50018L10.9456 3.4045L12.4627 5.59759L11.7054 4.50018ZM12.3219 4.07268L13.0817 5.16836L14.1074 4.45713L13.4653 3.38679L12.3219 4.07268ZM12.3174 4.06518L13.4608 3.37929L13.4366 3.33903L13.4097 3.30057L12.3174 4.06518ZM12.3069 4.05018L11.1977 4.79011L11.206 4.80255L11.2146 4.8148L12.3069 4.05018ZM12.1434 3.77418L13.3253 3.15692L13.3132 3.13377L13.3002 3.11111L12.1434 3.77418ZM12.0009 3.37518H10.6676V3.48581L10.6858 3.59492L12.0009 3.37518ZM12.1449 2.97618L10.9638 2.35739L10.9594 2.36599L12.1449 2.97618ZM12.3099 2.69868L13.4176 3.4408L13.4485 3.39471L13.4755 3.34622L12.3099 2.69868ZM12.3174 2.68518L11.2311 1.91201L11.188 1.97262L11.1519 2.03765L12.3174 2.68518ZM16.6434 3.13968L15.8685 4.22469L15.8691 4.22517L16.6434 3.13968ZM15.5964 3.31518L14.51 2.54218L14.4982 2.55873L14.487 2.57562L15.5964 3.31518ZM15.5934 3.31968L16.6177 4.17327L16.6633 4.11853L16.7028 4.05924L15.5934 3.31968ZM15.5859 3.32868L14.5616 2.4751L14.5111 2.53578L14.468 2.60201L15.5859 3.32868ZM15.5664 3.35868L16.6785 4.09436L16.6843 4.08536L15.5664 3.35868ZM15.5019 3.45618L14.3899 2.72053L14.3816 2.73306L14.3736 2.74577L15.5019 3.45618ZM15.3129 3.78618L16.4979 4.39733L16.5002 4.393L15.3129 3.78618ZM15.3129 5.96418L14.1279 6.57534L14.1318 6.58284L15.3129 5.96418ZM15.5679 6.39168L16.7112 5.70569L16.6931 5.67552L16.6735 5.64636L15.5679 6.39168ZM15.5859 6.42168L14.4426 7.10768L14.478 7.16662L14.5192 7.2216L15.5859 6.42168ZM15.5904 6.42768L16.6998 5.68806L16.6793 5.65732L16.6571 5.62777L15.5904 6.42768ZM15.5994 6.44118L16.7163 5.71278L16.7088 5.70156L15.5994 6.44118ZM15.7584 6.71568L14.5709 7.32205L14.5854 7.35042L14.6013 7.37808L15.7584 6.71568ZM15.9009 7.11618L17.2193 7.31512L17.2508 7.10673L17.2164 6.89879L15.9009 7.11618ZM15.7584 7.52868L14.5983 6.87142L14.5804 6.90312L14.5642 6.93577L15.7584 7.52868ZM15.5979 7.81218L16.7073 8.55176L16.7142 8.54149L16.7208 8.5311L15.5979 7.81218ZM15.5889 7.82568L16.6884 8.57998L16.6934 8.57265L16.6983 8.56526L15.5889 7.82568ZM16.8264 8.67468L17.9259 9.42898L18.1597 9.08809V8.67468H16.8264ZM16.8264 8.67018L15.8835 7.72749L15.4931 8.11799V8.67018H16.8264ZM16.8294 8.66718L17.7723 9.60988L17.8656 9.51655L17.9388 9.40674L16.8294 8.66718ZM16.8354 8.65818L17.9448 9.39774L17.9491 9.39132L17.9533 9.38485L16.8354 8.65818ZM16.8549 8.62818L17.9728 9.35486L17.9744 9.35248L16.8549 8.62818ZM17.1024 8.19468L15.9098 7.5984L15.9096 7.59884L17.1024 8.19468ZM17.4009 7.10268L18.7342 7.09343L18.7342 7.09323L17.4009 7.10268ZM17.0964 6.03618L15.907 6.63871L15.91 6.64461L17.0964 6.03618ZM16.8534 5.61468L15.7355 6.34132L15.736 6.3421L16.8534 5.61468ZM16.8339 5.58468L17.9518 4.85805L17.9161 4.80304L17.8751 4.75181L16.8339 5.58468ZM16.8279 5.57718L15.7186 6.31699L15.7507 6.365L15.7867 6.41006L16.8279 5.57718ZM16.8249 5.57268L17.9342 4.83288L17.1829 3.70647L16.0682 4.4749L16.8249 5.57268ZM16.2069 5.99868L15.4471 4.903L16.9636 7.09647L16.2069 5.99868ZM16.8234 5.57118L17.5832 6.66686L18.7565 5.85324L17.8646 4.73828L16.8234 5.57118ZM16.8174 5.56368L15.6248 6.15997L15.688 6.2863L15.7762 6.39659L16.8174 5.56368ZM16.8099 5.54868L18.0025 4.9524L17.9636 4.87471L17.915 4.80271L16.8099 5.54868ZM16.7694 5.48868L15.6429 6.20194L15.6534 6.21846L15.6643 6.23466L16.7694 5.48868ZM16.6449 5.27268L17.8268 4.65543L17.8134 4.62982L17.7989 4.60482L16.6449 5.27268ZM16.5009 4.87518L15.1676 4.87518V4.98911L15.1869 5.10139L16.5009 4.87518ZM16.6449 4.47618L15.4638 3.85739L15.4594 3.86599L16.6449 4.47618ZM16.8099 4.19868L17.9176 4.9408L17.9485 4.89471L17.9755 4.84622L16.8099 4.19868ZM16.8174 4.18518L15.7311 3.41201L15.688 3.47262L15.6519 3.53765L16.8174 4.18518ZM7.68091 3.13968L8.45409 4.22595C8.32813 4.31561 8.17173 4.35159 8.01926 4.32599L8.23998 3.01106L8.46071 1.69612C7.91616 1.60471 7.35759 1.73322 6.90774 2.05342L7.68091 3.13968ZM8.23998 3.01106L8.01926 4.32599C7.86678 4.3004 7.7307 4.21532 7.64092 4.08945L8.72641 3.31518L9.8119 2.54092C9.49126 2.09139 9.00527 1.78753 8.46071 1.69612L8.23998 3.01106ZM8.72641 3.31518L7.61698 4.05474L7.61998 4.05924L8.72941 3.31968L9.83884 2.58012L9.83584 2.57562L8.72641 3.31518ZM8.72941 3.31968L7.70512 4.17327L7.71262 4.18227L8.73691 3.32868L9.7612 2.4751L9.7537 2.4661L8.72941 3.31968ZM8.73691 3.32868L7.61899 4.05534L7.63849 4.08534L8.75641 3.35868L9.87434 2.63203L9.85484 2.60203L8.73691 3.32868ZM8.75641 3.35868L7.64886 4.10105C7.71382 4.19796 7.77337 4.29839 7.82725 4.40188L9.00991 3.78618L10.1926 3.17049C10.0933 2.97985 9.98363 2.79485 9.86397 2.61632L8.75641 3.35868ZM9.00991 3.78618L7.82489 4.39733C7.86988 4.48457 7.91438 4.58076 7.94687 4.67844C7.98062 4.77987 7.98858 4.84523 7.98858 4.87518H9.32191H10.6552C10.6552 4.10325 10.3339 3.44448 10.1949 3.17504L9.00991 3.78618ZM9.32191 4.87518H7.98858C7.98858 4.90513 7.98062 4.9705 7.94687 5.07193C7.91438 5.16961 7.86988 5.2658 7.82489 5.35304L9.00991 5.96418L10.1949 6.57533C10.3339 6.30588 10.6552 5.64712 10.6552 4.87518H9.32191ZM9.00991 5.96418L7.82879 5.34553C7.77458 5.44904 7.71467 5.54947 7.64935 5.64636L8.75491 6.39168L9.86047 7.13701C9.9808 6.95853 10.0912 6.77352 10.191 6.58284L9.00991 5.96418ZM8.75491 6.39168L7.61159 5.70569L7.59359 5.73569L8.73691 6.42168L9.88023 7.10768L9.89823 7.07768L8.75491 6.39168ZM8.73691 6.42168L7.7941 5.47888L7.7881 5.48487L8.73091 6.42768L9.67372 7.37049L9.67972 7.36449L8.73691 6.42168ZM8.73091 6.42768L7.56537 5.78017L7.55787 5.79367L8.72341 6.44118L9.88896 7.0887L9.89646 7.0752L8.73091 6.42768ZM8.72341 6.44118L7.6066 5.71282C7.52311 5.84085 7.44644 5.9732 7.37693 6.10932L8.56441 6.71568L9.75189 7.32205C9.77862 7.26969 9.80811 7.21879 9.84022 7.16955L8.72341 6.44118ZM8.56441 6.71568L7.40725 6.05329C7.25746 6.31498 7.15558 6.6013 7.10642 6.89879L8.42191 7.11618L9.7374 7.33358C9.73482 7.34924 9.72945 7.36431 9.72157 7.37808L8.56441 6.71568ZM8.42191 7.11618H7.08858C7.08858 7.35982 7.15281 7.57395 7.18544 7.67506C7.23106 7.81646 7.29342 7.96812 7.37184 8.12497L8.56441 7.52868L9.75698 6.9324C9.7319 6.88224 9.72301 6.85541 9.72326 6.85618C9.72329 6.85626 9.72834 6.87163 9.73447 6.90081C9.7376 6.91568 9.74212 6.93944 9.74613 6.97049C9.74981 6.99894 9.75524 7.05005 9.75524 7.11618H8.42191ZM8.56441 7.52868L7.37016 8.1216C7.43997 8.2622 7.51736 8.3989 7.602 8.5311L8.72491 7.81218L9.84783 7.09327C9.81527 7.04242 9.78551 6.98985 9.75866 6.93577L8.56441 7.52868ZM8.72491 7.81218L7.61552 8.5518L7.62452 8.5653L8.73391 7.82568L9.8433 7.08607L9.8343 7.07257L8.72491 7.81218ZM8.73391 7.82568L7.63445 8.57998C7.54698 8.45249 7.51374 8.29547 7.54205 8.14347L8.85285 8.38754L10.1637 8.63161C10.2648 8.08831 10.146 7.52708 9.83337 7.07139L8.73391 7.82568ZM8.85285 8.38754L7.54205 8.14347C7.57035 7.99147 7.65787 7.85694 7.78537 7.76947L8.53966 8.86893L9.29396 9.96839C9.74966 9.65576 10.0625 9.1749 10.1637 8.63161L8.85285 8.38754ZM8.53966 8.86893L7.78537 7.76947C7.91286 7.68201 8.06987 7.64877 8.22187 7.67707L7.97781 8.98787L7.73374 10.2987C8.27703 10.3998 8.83826 10.281 9.29396 9.96839L8.53966 8.86893ZM7.97781 8.98787L8.22187 7.67707C8.37387 7.70537 8.50841 7.79289 8.59587 7.92039L7.49641 8.67468L6.39695 9.42898C6.70959 9.88468 7.19044 10.1975 7.73374 10.2987L7.97781 8.98787ZM7.49641 8.67468H8.82975V8.67018H7.49641H6.16308V8.67468H7.49641ZM7.49641 8.67018L8.43922 7.72738L8.43622 7.72437L7.49341 8.66718L6.5506 9.60999L6.5536 9.61299L7.49641 8.67018ZM7.49341 8.66718L8.60284 7.92762L8.59684 7.91862L7.48741 8.65818L6.37798 9.39774L6.38398 9.40674L7.49341 8.66718ZM7.48741 8.65818L8.60534 7.93153L8.58584 7.90153L7.46791 8.62818L6.34999 9.35484L6.36949 9.38484L7.48741 8.65818ZM7.46791 8.62818L8.58737 7.90389C8.52371 7.80551 8.46557 7.70367 8.4132 7.59884L7.22041 8.19468L6.02762 8.79053C6.12409 8.98364 6.2312 9.17124 6.34846 9.35248L7.46791 8.62818ZM7.22041 8.19468L8.41298 7.5984C8.3707 7.51384 8.32742 7.41662 8.29587 7.31724C8.26308 7.21395 8.25498 7.1454 8.25521 7.11194L6.92191 7.10268L5.58861 7.09343C5.58331 7.85609 5.88908 8.51345 6.02784 8.79097L7.22041 8.19468ZM6.92191 7.10268L8.25517 7.11687C8.25552 7.0842 8.26448 7.01694 8.29786 6.91556C8.32995 6.81809 8.37328 6.72275 8.41592 6.63856L7.22641 6.03618L6.03691 5.43381C5.90146 5.70128 5.59659 6.34211 5.58865 7.0885L6.92191 7.10268ZM7.22641 6.03618L8.41584 6.63871C8.46745 6.53683 8.52454 6.43781 8.58684 6.3421L7.46941 5.61468L6.35198 4.88727C6.23721 5.06359 6.13205 5.24598 6.03698 5.43366L7.22641 6.03618ZM7.46941 5.61468L8.58734 6.34134L8.60684 6.31134L7.48891 5.58468L6.37099 4.85803L6.35149 4.88803L7.46941 5.61468ZM7.48891 5.58468L8.59834 6.32424L8.60434 6.31524L7.49491 5.57568L6.38548 4.83612L6.37948 4.84512L7.48891 5.58468ZM7.49491 5.57568L8.43766 6.51855L8.44067 6.51555L7.49791 5.57268L6.55516 4.62982L6.55216 4.63282L7.49491 5.57568ZM7.49791 5.57268L8.53909 6.40559L8.54509 6.39809L7.50391 5.56518L6.46273 4.73228L6.45673 4.73978L7.49791 5.57268ZM7.50391 5.56518L8.59622 6.3298L8.60672 6.3148L7.51441 5.55018L6.4221 4.78557L6.4116 4.80057L7.50391 5.56518ZM7.51441 5.55018L8.62359 6.29011C8.70937 6.16153 8.7882 6.02845 8.85976 5.89144L7.67791 5.27418L6.49606 4.65692C6.46854 4.70962 6.43822 4.7608 6.40523 4.81026L7.51441 5.55018ZM7.67791 5.27418L8.83232 5.94135C8.98287 5.68086 9.08581 5.39562 9.13632 5.09902L7.82191 4.87518L6.5075 4.65135C6.51016 4.63574 6.51558 4.62072 6.5235 4.60702L7.67791 5.27418ZM7.82191 4.87518L9.13632 4.65135C9.08581 4.35475 8.98287 4.06951 8.83232 3.80902L7.67791 4.47618L6.5235 5.14335C6.51558 5.12964 6.51016 5.11463 6.5075 5.09902L7.82191 4.87518ZM7.67791 4.47618L8.85897 3.8574C8.78677 3.71961 8.70721 3.58581 8.62063 3.45657L7.51291 4.19868L6.40519 4.9408C6.43849 4.99051 6.46909 5.04197 6.49686 5.09496L7.67791 4.47618ZM7.51291 4.19868L8.67845 3.55115L8.67095 3.53765L7.50541 4.18518L6.33987 4.83272L6.34737 4.84622L7.51291 4.19868ZM7.50541 4.18518L8.59168 3.41201C8.67714 3.53207 8.717 3.6873 8.69022 3.84684L7.37529 3.62611L6.06035 3.40538C5.96775 3.95701 6.10315 4.5144 6.41914 4.95836L7.50541 4.18518ZM7.37529 3.62611L8.69022 3.84684C8.66359 4.00546 8.57593 4.13904 8.45518 4.22517L7.68091 3.13968L6.90664 2.05419C6.46223 2.37119 6.15279 2.85468 6.06035 3.40538L7.37529 3.62611ZM12.1434 1.63968L12.9184 0.554678C12.6955 0.395485 12.4434 0.281805 12.1765 0.220144L11.8763 1.51925L11.5762 2.81836C11.5015 2.80109 11.4309 2.76926 11.3685 2.72469L12.1434 1.63968ZM11.8763 1.51925L12.1765 0.220144C11.9096 0.158483 11.6332 0.150052 11.3631 0.195332L11.5835 1.51032L11.8039 2.82531C11.7283 2.83799 11.6509 2.83562 11.5762 2.81836L11.8763 1.51925ZM11.5835 1.51032L11.3631 0.195332C11.093 0.240612 10.8344 0.338715 10.6022 0.484026L11.3096 1.61425L12.017 2.74447C11.952 2.78516 11.8796 2.81263 11.8039 2.82531L11.5835 1.51032ZM11.3096 1.61425L10.6022 0.484026C10.3701 0.629337 10.1688 0.819005 10.01 1.04218L11.0964 1.81518L12.1828 2.58819C12.1383 2.65068 12.082 2.70379 12.017 2.74447L11.3096 1.61425ZM11.0964 1.81518L9.98698 1.07562L9.98398 1.08012L11.0934 1.81968L12.2028 2.55924L12.2058 2.55474L11.0964 1.81518ZM11.0934 1.81968L10.0691 0.966087L10.0616 0.975087L11.0859 1.82868L12.1102 2.68228L12.1177 2.67328L11.0934 1.81968ZM11.0859 1.82868L9.96799 1.10203L9.94849 1.13203L11.0664 1.85868L12.1843 2.58534L12.2038 2.55534L11.0859 1.82868ZM11.0664 1.85868L9.95886 1.11632C9.83919 1.29485 9.72949 1.47986 9.63025 1.67049L10.8129 2.28618L11.9956 2.90188C12.0495 2.79839 12.109 2.69796 12.174 2.60105L11.0664 1.85868ZM10.8129 2.28618L9.62789 1.67504C9.48893 1.94448 9.16758 2.60325 9.16758 3.37518H10.5009H11.8342C11.8342 3.34523 11.8422 3.27987 11.8759 3.17844C11.9084 3.08076 11.9529 2.98457 11.9979 2.89733L10.8129 2.28618ZM10.5009 3.37518H9.16758C9.16758 4.14712 9.48893 4.80589 9.62789 5.07533L10.8129 4.46418L11.9979 3.85304C11.9529 3.7658 11.9084 3.66961 11.8759 3.57193C11.8422 3.4705 11.8342 3.40513 11.8342 3.37518H10.5009ZM10.8129 4.46418L9.63179 5.08284C9.73167 5.27352 9.84202 5.45853 9.96235 5.63701L11.0679 4.89168L12.1735 4.14636C12.1082 4.04947 12.0482 3.94904 11.994 3.84553L10.8129 4.46418ZM11.0679 4.89168L9.92459 5.57768L9.94259 5.60768L11.0859 4.92168L12.2292 4.23569L12.2112 4.20569L11.0679 4.89168ZM11.0859 4.92168L10.1431 5.86449L10.1491 5.87049L11.0919 4.92768L12.0347 3.98488L12.0287 3.97887L11.0859 4.92168ZM11.0919 4.92768L9.92638 5.57523L9.93388 5.58873L11.0994 4.94118L12.2649 4.29364L12.2574 4.28014L11.0919 4.92768ZM11.0994 4.94118L9.9826 5.66955C10.0147 5.71879 10.0442 5.76969 10.0709 5.82205L11.2584 5.21568L12.4459 4.60932C12.3764 4.4732 12.2997 4.34085 12.2162 4.21282L11.0994 4.94118ZM11.2584 5.21568L10.1013 5.87808C10.0934 5.8643 10.088 5.84923 10.0854 5.83358L11.4009 5.61618L12.7164 5.39879C12.6672 5.1013 12.5654 4.81498 12.4156 4.55329L11.2584 5.21568ZM11.4009 5.61618L10.0819 5.42127C10.0843 5.40516 10.0896 5.38963 10.0976 5.37543L11.2599 6.02868L12.4223 6.68194C12.5738 6.41227 12.6747 6.11712 12.7199 5.8111L11.4009 5.61618ZM11.2599 6.02868L10.068 5.43115C10.0409 5.48524 10.0108 5.53782 9.97797 5.58865L11.0979 6.31218L12.2179 7.03572C12.3032 6.90357 12.3813 6.76687 12.4519 6.62622L11.2599 6.02868ZM11.0979 6.31218L9.98849 5.57261L9.97949 5.58611L11.0889 6.32568L12.1983 7.06526L12.2073 7.05176L11.0979 6.31218ZM11.0889 6.32568L9.98945 5.57139C9.67682 6.02709 9.55801 6.58831 9.65917 7.13161L10.97 6.88754L12.2808 6.64347C12.3091 6.79547 12.2758 6.95249 12.1884 7.07998L11.0889 6.32568ZM10.97 6.88754L9.65917 7.13161C9.76033 7.6749 10.0732 8.15576 10.5289 8.46839L11.2832 7.36893L12.0375 6.26947C12.165 6.35694 12.2525 6.49147 12.2808 6.64347L10.97 6.88754ZM11.2832 7.36893L10.5289 8.46839C10.9846 8.78103 11.5458 8.89984 12.0891 8.79868L11.845 7.48787L11.6009 6.17707C11.7529 6.14877 11.91 6.18201 12.0375 6.26947L11.2832 7.36893ZM11.845 7.48787L12.0891 8.79868C12.6324 8.69752 13.1132 8.38468 13.4259 7.92898L12.3264 7.17468L11.227 6.42039C11.3144 6.29289 11.449 6.20537 11.6009 6.17707L11.845 7.48787ZM12.3264 7.17468H13.6597V7.17018H12.3264H10.9931V7.17468H12.3264ZM12.3264 7.17018L13.2693 8.11288L13.2723 8.10988L12.3294 7.16718L11.3865 6.22449L11.3835 6.22749L12.3264 7.17018ZM12.3294 7.16718L13.4388 7.90674L13.4448 7.89774L12.3354 7.15818L11.226 6.41862L11.22 6.42762L12.3294 7.16718ZM12.3354 7.15818L13.4533 7.88485L13.4728 7.85485L12.3549 7.12818L11.237 6.40151L11.2175 6.43151L12.3354 7.15818ZM12.3549 7.12818L13.4744 7.85248C13.5916 7.67124 13.6987 7.48364 13.7952 7.29053L12.6024 6.69468L11.4096 6.09884C11.3573 6.20367 11.2991 6.30551 11.2355 6.40389L12.3549 7.12818ZM12.6024 6.69468L13.795 7.29097C13.9337 7.01345 14.2395 6.35609 14.2342 5.59342L12.9009 5.60268L11.5676 5.61194C11.5678 5.6454 11.5597 5.71395 11.527 5.81724C11.4954 5.91662 11.4521 6.01384 11.4098 6.0984L12.6024 6.69468ZM12.9009 5.60268L14.2342 5.5885C14.2262 4.84211 13.9214 4.20128 13.7859 3.93381L12.5964 4.53618L11.4069 5.13856C11.4495 5.22275 11.4929 5.31809 11.525 5.41556C11.5583 5.51694 11.5673 5.58419 11.5677 5.61687L12.9009 5.60268ZM12.5964 4.53618L13.7858 3.93366C13.6908 3.74598 13.5856 3.56358 13.4708 3.38727L12.3534 4.11468L11.236 4.8421C11.2983 4.93781 11.3554 5.03683 11.407 5.13871L12.5964 4.53618ZM12.3534 4.11468L13.4713 3.38805L13.4518 3.35805L12.3339 4.08468L11.216 4.81132L11.2355 4.84132L12.3534 4.11468ZM12.3339 4.08468L13.3751 3.25181L13.3691 3.24431L12.3279 4.07718L11.2867 4.91006L11.2927 4.91756L12.3339 4.08468ZM12.3279 4.07718L13.4372 3.33738L13.4342 3.33288L12.3249 4.07268L11.2156 4.81249L11.2186 4.81699L12.3279 4.07718ZM12.3249 4.07268L11.5676 2.97528L10.9481 3.40278L11.7054 4.50018L12.4627 5.59759L13.0822 5.17009L12.3249 4.07268ZM11.7054 4.50018L12.4652 5.59586L13.0817 5.16836L12.3219 4.07268L11.5621 2.977L10.9456 3.4045L11.7054 4.50018ZM12.3219 4.07268L13.4653 3.38679L13.4608 3.37929L12.3174 4.06518L11.174 4.75107L11.1785 4.75857L12.3219 4.07268ZM12.3174 4.06518L13.4097 3.30057L13.3992 3.28557L12.3069 4.05018L11.2146 4.8148L11.2251 4.8298L12.3174 4.06518ZM12.3069 4.05018L13.4161 3.31026C13.3831 3.2608 13.3528 3.20962 13.3253 3.15692L12.1434 3.77418L10.9616 4.39144C11.0331 4.52845 11.112 4.66153 11.1977 4.79011L12.3069 4.05018ZM12.1434 3.77418L13.3002 3.11111C13.308 3.12483 13.3134 3.13984 13.316 3.15545L12.0009 3.37518L10.6858 3.59492C10.7353 3.89132 10.8372 4.17655 10.9866 4.43726L12.1434 3.77418ZM12.0009 3.37518H13.3342C13.3342 3.44776 13.3278 3.50374 13.3236 3.53397C13.319 3.56735 13.3138 3.59296 13.3103 3.60898C13.3033 3.64049 13.2974 3.65771 13.297 3.65888C13.296 3.66201 13.3046 3.63662 13.3304 3.58638L12.1449 2.97618L10.9594 2.36599C10.8803 2.51974 10.8168 2.66836 10.77 2.80724C10.7386 2.90061 10.6676 3.12137 10.6676 3.37518H12.0009ZM12.1449 2.97618L13.326 3.59496C13.3537 3.54197 13.3843 3.49051 13.4176 3.4408L12.3099 2.69868L11.2022 1.95657C11.1156 2.0858 11.0361 2.21961 10.9639 2.3574L12.1449 2.97618ZM12.3099 2.69868L13.4755 3.34622L13.483 3.33272L12.3174 2.68518L11.1519 2.03765L11.1444 2.05115L12.3099 2.69868ZM12.3174 2.68518L13.4037 3.45836C13.7197 3.0144 13.8551 2.45701 13.7625 1.90538L12.4475 2.12611L11.1326 2.34684C11.1058 2.18729 11.1457 2.03207 11.2311 1.91201L12.3174 2.68518ZM12.4475 2.12611L13.7625 1.90538C13.6711 1.36083 13.3672 0.87484 12.9177 0.554194L12.1434 1.63968L11.3691 2.72517C11.2433 2.63539 11.1582 2.49932 11.1326 2.34684L12.4475 2.12611ZM16.6434 3.13968L17.4184 2.05468C17.1955 1.89548 16.9434 1.7818 16.6765 1.72014L16.3763 3.01925L16.0762 4.31836C16.0015 4.3011 15.9309 4.26927 15.8685 4.22469L16.6434 3.13968ZM16.3763 3.01925L16.6765 1.72014C16.4096 1.65848 16.1332 1.65005 15.8631 1.69533L16.0835 3.01032L16.3039 4.32531C16.2283 4.33799 16.1509 4.33562 16.0762 4.31836L16.3763 3.01925ZM16.0835 3.01032L15.8631 1.69533C15.593 1.74061 15.3344 1.83871 15.1022 1.98403L15.8096 3.11425L16.517 4.24447C16.452 4.28516 16.3796 4.31263 16.3039 4.32531L16.0835 3.01032ZM15.8096 3.11425L15.1022 1.98403C14.8701 2.12934 14.6688 2.31901 14.51 2.54218L15.5964 3.31518L16.6828 4.08819C16.6383 4.15067 16.582 4.20378 16.517 4.24447L15.8096 3.11425ZM15.5964 3.31518L14.487 2.57562L14.484 2.58012L15.5934 3.31968L16.7028 4.05924L16.7058 4.05474L15.5964 3.31518ZM15.5934 3.31968L14.5691 2.4661L14.5616 2.4751L15.5859 3.32868L16.6102 4.18227L16.6177 4.17327L15.5934 3.31968ZM15.5859 3.32868L14.468 2.60201L14.4485 2.63201L15.5664 3.35868L16.6843 4.08536L16.7038 4.05536L15.5859 3.32868ZM15.5664 3.35868L14.4544 2.62303L14.3899 2.72053L15.5019 3.45618L16.6139 4.19184L16.6784 4.09434L15.5664 3.35868ZM15.5019 3.45618L14.3736 2.74577C14.311 2.84516 14.2194 2.99592 14.1257 3.17937L15.3129 3.78618L16.5002 4.393C16.5444 4.30645 16.5908 4.22921 16.6302 4.1666L15.5019 3.45618ZM15.3129 3.78618L14.1279 3.17504C13.9889 3.44448 13.6676 4.10325 13.6676 4.87518H15.0009H16.3342C16.3342 4.84523 16.3422 4.77987 16.3759 4.67844C16.4084 4.58076 16.4529 4.48457 16.4979 4.39733L15.3129 3.78618ZM15.0009 4.87518H13.6676C13.6676 5.64712 13.9889 6.30588 14.1279 6.57533L15.3129 5.96418L16.4979 5.35304C16.4529 5.2658 16.4084 5.16961 16.3759 5.07193C16.3422 4.9705 16.3342 4.90513 16.3342 4.87518H15.0009ZM15.3129 5.96418L14.1318 6.58284C14.2317 6.77352 14.342 6.95853 14.4623 7.13701L15.5679 6.39168L16.6735 5.64636C16.6082 5.54947 16.5482 5.44904 16.494 5.34553L15.3129 5.96418ZM15.5679 6.39168L14.4246 7.07768L14.4426 7.10768L15.5859 6.42168L16.7292 5.73569L16.7112 5.70569L15.5679 6.39168ZM15.5859 6.42168L14.5192 7.2216L14.5237 7.2276L15.5904 6.42768L16.6571 5.62777L16.6526 5.62177L15.5859 6.42168ZM15.5904 6.42768L14.481 7.16731L14.49 7.18081L15.5994 6.44118L16.7088 5.70156L16.6998 5.68806L15.5904 6.42768ZM15.5994 6.44118L14.4826 7.16955C14.5147 7.21879 14.5442 7.26969 14.5709 7.32205L15.7584 6.71568L16.9459 6.10932C16.8764 5.9732 16.7997 5.84085 16.7162 5.71282L15.5994 6.44118ZM15.7584 6.71568L14.6013 7.37808C14.5934 7.36431 14.588 7.34924 14.5854 7.33358L15.9009 7.11618L17.2164 6.89879C17.1672 6.6013 17.0654 6.31498 16.9156 6.05329L15.7584 6.71568ZM15.9009 7.11618L14.5825 6.91725C14.5849 6.90113 14.5903 6.88559 14.5983 6.87142L15.7584 7.52868L16.9185 8.18595C17.0711 7.91651 17.1731 7.62135 17.2193 7.31512L15.9009 7.11618ZM15.7584 7.52868L14.5642 6.93577C14.5373 6.98984 14.5076 7.04242 14.475 7.09327L15.5979 7.81218L16.7208 8.5311C16.8055 8.3989 16.8829 8.2622 16.9527 8.1216L15.7584 7.52868ZM15.5979 7.81218L14.4885 7.07261L14.4795 7.08611L15.5889 7.82568L16.6983 8.56526L16.7073 8.55176L15.5979 7.81218ZM15.5889 7.82568L14.4895 7.07139C14.1768 7.52708 14.058 8.08831 14.1592 8.63161L15.47 8.38754L16.7808 8.14347C16.8091 8.29547 16.7758 8.45249 16.6884 8.57998L15.5889 7.82568ZM15.47 8.38754L14.1592 8.63161C14.2603 9.1749 14.5732 9.65576 15.0289 9.96839L15.7832 8.86893L16.5375 7.76947C16.665 7.85694 16.7525 7.99147 16.7808 8.14347L15.47 8.38754ZM15.7832 8.86893L15.0289 9.96839C15.4846 10.281 16.0458 10.3998 16.5891 10.2987L16.345 8.98787L16.1009 7.67707C16.2529 7.64877 16.41 7.682 16.5375 7.76947L15.7832 8.86893ZM16.345 8.98787L16.5891 10.2987C17.1324 10.1975 17.6132 9.88468 17.9259 9.42898L16.8264 8.67468L15.727 7.92039C15.8144 7.79289 15.9489 7.70537 16.1009 7.67707L16.345 8.98787ZM16.8264 8.67468H18.1597V8.67018H16.8264H15.4931V8.67468H16.8264ZM16.8264 8.67018L17.7693 9.61288L17.7723 9.60988L16.8294 8.66718L15.8865 7.72449L15.8835 7.72749L16.8264 8.67018ZM16.8294 8.66718L17.9388 9.40674L17.9448 9.39774L16.8354 8.65818L15.726 7.91862L15.72 7.92762L16.8294 8.66718ZM16.8354 8.65818L17.9533 9.38485L17.9728 9.35485L16.8549 8.62818L15.737 7.90151L15.7175 7.93151L16.8354 8.65818ZM16.8549 8.62818L17.9744 9.35248C18.0916 9.17124 18.1987 8.98364 18.2952 8.79053L17.1024 8.19468L15.9096 7.59884C15.8573 7.70367 15.7991 7.80551 15.7355 7.90389L16.8549 8.62818ZM17.1024 8.19468L18.295 8.79097C18.4337 8.51345 18.7395 7.85609 18.7342 7.09343L17.4009 7.10268L16.0676 7.11194C16.0678 7.1454 16.0597 7.21395 16.027 7.31724C15.9954 7.41662 15.9521 7.51384 15.9098 7.5984L17.1024 8.19468ZM17.4009 7.10268L18.7342 7.09323C18.7289 6.3433 18.4227 5.70053 18.2828 5.42776L17.0964 6.03618L15.91 6.64461C15.9516 6.7258 15.9945 6.81962 16.0261 6.91556C16.059 7.01539 16.0674 7.0811 16.0676 7.11214L17.4009 7.10268ZM17.0964 6.03618L18.2858 5.43366C18.1908 5.24598 18.0856 5.06359 17.9708 4.88727L16.8534 5.61468L15.736 6.3421C15.7983 6.43781 15.8554 6.53683 15.907 6.63871L17.0964 6.03618ZM16.8534 5.61468L17.9713 4.88805L17.9518 4.85805L16.8339 5.58468L15.716 6.31132L15.7355 6.34132L16.8534 5.61468ZM16.8339 5.58468L17.8751 4.75181L17.8691 4.74431L16.8279 5.57718L15.7867 6.41006L15.7927 6.41756L16.8339 5.58468ZM16.8279 5.57718L17.9372 4.83738L17.9342 4.83288L16.8249 5.57268L15.7156 6.31249L15.7186 6.31699L16.8279 5.57718ZM16.8249 5.57268L16.0682 4.4749L15.4502 4.9009L16.2069 5.99868L16.9636 7.09647L17.5816 6.67047L16.8249 5.57268ZM16.2069 5.99868L16.9667 7.09436L17.5832 6.66686L16.8234 5.57118L16.0636 4.4755L15.4471 4.903L16.2069 5.99868ZM16.8234 5.57118L17.8646 4.73828L17.8586 4.73078L16.8174 5.56368L15.7762 6.39659L15.7822 6.40409L16.8234 5.57118ZM16.8174 5.56368L18.01 4.9674L18.0025 4.9524L16.8099 5.54868L15.6173 6.14497L15.6248 6.15997L16.8174 5.56368ZM16.8099 5.54868L17.915 4.80271L17.8745 4.74271L16.7694 5.48868L15.6643 6.23466L15.7048 6.29466L16.8099 5.54868ZM16.7694 5.48868L17.8959 4.77543C17.8712 4.7364 17.8481 4.69636 17.8268 4.65543L16.6449 5.27268L15.4631 5.88994C15.5187 5.99639 15.5787 6.10048 15.6429 6.20194L16.7694 5.48868ZM16.6449 5.27268L17.7989 4.60482C17.8068 4.61848 17.8122 4.63343 17.8149 4.64898L16.5009 4.87518L15.1869 5.10139C15.2378 5.39689 15.3407 5.68102 15.4909 5.94055L16.6449 5.27268ZM16.5009 4.87518H17.8342C17.8342 4.94776 17.8278 5.00374 17.8236 5.03397C17.819 5.06735 17.8138 5.09296 17.8103 5.10898C17.8033 5.14049 17.7974 5.15771 17.797 5.15888C17.796 5.16201 17.8046 5.13662 17.8304 5.08638L16.6449 4.47618L15.4594 3.86599C15.3803 4.01974 15.3168 4.16836 15.27 4.30724C15.2386 4.40061 15.1676 4.62137 15.1676 4.87518L16.5009 4.87518ZM16.6449 4.47618L17.826 5.09496C17.8537 5.04197 17.8843 4.99051 17.9176 4.9408L16.8099 4.19868L15.7022 3.45657C15.6156 3.5858 15.5361 3.71961 15.4639 3.8574L16.6449 4.47618ZM16.8099 4.19868L17.9755 4.84622L17.983 4.83272L16.8174 4.18518L15.6519 3.53765L15.6444 3.55115L16.8099 4.19868ZM16.8174 4.18518L17.9037 4.95836C18.2197 4.5144 18.3551 3.95701 18.2625 3.40538L16.9475 3.62611L15.6326 3.84684C15.6058 3.68729 15.6457 3.53207 15.7311 3.41201L16.8174 4.18518ZM16.9475 3.62611L18.2625 3.40538C18.1711 2.86083 17.8672 2.37484 17.4177 2.05419L16.6434 3.13968L15.8691 4.22517C15.7433 4.13539 15.6582 3.99932 15.6326 3.84684L16.9475 3.62611Z" fill="#DC143C" mask="url(#path-1-inside-1_2433_24927)"/>
<path d="M8.07324 18.71L7.72559 18.5205C6.32684 17.7583 4.9986 16.5159 3.99219 15.0527C2.88983 13.45 2.16699 11.571 2.16699 9.75C2.16699 9.7279 2.17578 9.70703 2.19141 9.69141C2.20703 9.67578 2.2279 9.66699 2.25 9.66699H21.75C21.7721 9.66699 21.793 9.67578 21.8086 9.69141C21.8242 9.70703 21.833 9.7279 21.833 9.75C21.833 11.5709 21.1234 13.4495 20.0332 15.0527C19.0385 16.5156 17.7203 17.7593 16.3232 18.5205L15.9756 18.71V20.25C15.9756 20.2721 15.9668 20.293 15.9512 20.3086C15.9356 20.3242 15.9147 20.333 15.8926 20.333H8.15723C8.13512 20.333 8.11328 20.3242 8.09766 20.3086C8.08226 20.293 8.07324 20.2719 8.07324 20.25V18.71Z" stroke="#DC143C" stroke-width="1.33333"/>
</svg>
