<svg width="24" height="24" viewBox="0 0 24 24" fill="none" xmlns="http://www.w3.org/2000/svg">
<path fill-rule="evenodd" clip-rule="evenodd" d="M7.67896 3.13968C7.84091 3.02441 8.04199 2.97815 8.23803 3.01106C8.43407 3.04397 8.60903 3.15335 8.72446 3.31518L8.72746 3.31968L8.73496 3.32868L8.75446 3.35868C8.84677 3.49641 8.9314 3.63912 9.00796 3.78618C9.13096 4.02468 9.31996 4.44168 9.31996 4.87518C9.31996 5.30868 9.13096 5.72568 9.00796 5.96418C8.93091 6.11128 8.84578 6.254 8.75296 6.39168L8.73496 6.42168L8.72896 6.42768L8.72146 6.44118C8.66365 6.52982 8.61058 6.62144 8.56246 6.71568C8.4915 6.83964 8.44325 6.97527 8.41996 7.11618C8.41996 7.17168 8.45896 7.32168 8.56246 7.52868C8.61078 7.62602 8.66436 7.72066 8.72296 7.81218L8.73196 7.82568M8.73196 7.82568C8.84454 7.98979 8.88733 8.19189 8.8509 8.38754C8.81447 8.58319 8.70181 8.75635 8.53771 8.86893C8.37361 8.98152 8.1715 9.0243 7.97585 8.98787C7.78021 8.95144 7.60704 8.83879 7.49446 8.67468V8.67018L7.49146 8.66718L7.48546 8.65818L7.46596 8.62818C7.3755 8.48837 7.29287 8.34365 7.21846 8.19468C7.09846 7.95468 6.91696 7.53468 6.91996 7.10268C6.92446 6.67968 7.10596 6.27018 7.22446 6.03618C7.2978 5.89141 7.37892 5.7507 7.46746 5.61468L7.48696 5.58468L7.49296 5.57568L7.49596 5.57268L7.50196 5.56518L7.51246 5.55018C7.57184 5.46117 7.62642 5.36903 7.67596 5.27418C7.74727 5.15079 7.79603 5.01568 7.81996 4.87518C7.79603 4.73469 7.74727 4.59958 7.67596 4.47618C7.62598 4.38079 7.5709 4.28816 7.51096 4.19868L7.50346 4.18518C7.38819 4.02324 7.34043 3.82215 7.37333 3.62611C7.40624 3.43007 7.51713 3.25512 7.67896 3.13968M12.1415 1.63968C12.0612 1.58237 11.9705 1.54145 11.8744 1.51925C11.7783 1.49705 11.6788 1.49402 11.5816 1.51032C11.4843 1.52662 11.3912 1.56194 11.3077 1.61425C11.2241 1.66656 11.1516 1.73484 11.0945 1.81518L11.0915 1.81968L11.084 1.82868L11.0645 1.85868C10.9721 1.99641 10.8875 2.13912 10.811 2.28618C10.688 2.52468 10.499 2.94168 10.499 3.37518C10.499 3.80868 10.688 4.22568 10.811 4.46418C10.888 4.61128 10.9731 4.754 11.066 4.89168L11.084 4.92168L11.09 4.92768L11.0975 4.94118C11.1553 5.02982 11.2083 5.12144 11.2565 5.21568C11.3274 5.33964 11.3757 5.47527 11.399 5.61618C11.3775 5.76114 11.3297 5.90095 11.258 6.02868C11.2091 6.12606 11.1551 6.2207 11.096 6.31218L11.087 6.32568M11.087 6.32568C10.9744 6.48979 10.9316 6.69189 10.968 6.88754C11.0044 7.08319 11.1171 7.25635 11.2812 7.36893C11.4453 7.48152 11.6474 7.5243 11.8431 7.48787C12.0387 7.45144 12.2119 7.33879 12.3245 7.17468V7.17018L12.3275 7.16718L12.3335 7.15818L12.353 7.12818C12.4434 6.98837 12.526 6.84365 12.6005 6.69468C12.7205 6.45468 12.902 6.03468 12.899 5.60268C12.8945 5.17968 12.713 4.77018 12.5945 4.53618C12.5211 4.3914 12.44 4.2507 12.3515 4.11468L12.332 4.08468L12.326 4.07718L12.323 4.07268L11.7035 4.50018L12.32 4.07268L12.3155 4.06518L12.305 4.05018C12.2456 3.96117 12.191 3.86903 12.1415 3.77418C12.0707 3.65069 12.0224 3.51558 11.999 3.37518C11.999 3.32418 12.038 3.18018 12.143 2.97618C12.1929 2.88079 12.248 2.78816 12.308 2.69868L12.3155 2.68518C12.4307 2.52324 12.4785 2.32215 12.4456 2.12611C12.4127 1.93007 12.3033 1.75512 12.1415 1.63968M16.6415 3.13968C16.5612 3.08237 16.4705 3.04145 16.3744 3.01925C16.2783 2.99705 16.1788 2.99402 16.0816 3.01032C15.9843 3.02662 15.8912 3.06194 15.8077 3.11425C15.7241 3.16656 15.6516 3.23484 15.5945 3.31518L15.5915 3.31968L15.584 3.32868L15.5645 3.35868L15.5 3.45618C15.449 3.53718 15.38 3.65118 15.311 3.78618C15.188 4.02468 14.999 4.44168 14.999 4.87518C14.999 5.30868 15.188 5.72568 15.311 5.96418C15.388 6.11128 15.4731 6.254 15.566 6.39168L15.584 6.42168L15.5885 6.42768L15.5975 6.44118C15.6553 6.52982 15.7083 6.62144 15.7565 6.71568C15.8274 6.83964 15.8757 6.97527 15.899 7.11618C15.8771 7.26124 15.8288 7.40105 15.7565 7.52868C15.7081 7.62602 15.6546 7.72066 15.596 7.81218L15.587 7.82568M15.587 7.82568C15.4744 7.98979 15.4316 8.19189 15.468 8.38754C15.5044 8.58319 15.6171 8.75635 15.7812 8.86893C15.9453 8.98152 16.1474 9.0243 16.3431 8.98787C16.5387 8.95144 16.7119 8.83879 16.8245 8.67468V8.67018L16.8275 8.66718L16.8335 8.65818L16.853 8.62818C16.9434 8.48837 17.026 8.34365 17.1005 8.19468C17.2205 7.95468 17.402 7.53468 17.399 7.10268C17.396 6.67968 17.2145 6.27018 17.0945 6.03618C17.0211 5.89141 16.94 5.7507 16.8515 5.61468L16.832 5.58468L16.826 5.57718L16.823 5.57268L16.205 5.99868L16.8215 5.57118L16.8155 5.56368L16.808 5.54868L16.7675 5.48868C16.723 5.41844 16.6814 5.34638 16.643 5.27268C16.5718 5.14975 16.5231 5.01516 16.499 4.87518C16.499 4.82418 16.538 4.68018 16.643 4.47618C16.6929 4.38079 16.748 4.28816 16.808 4.19868L16.8155 4.18518C16.9307 4.02324 16.9785 3.82215 16.9456 3.62611C16.9127 3.43007 16.8033 3.25512 16.6415 3.13968" fill="#DC143C"/>
<path fill-rule="evenodd" clip-rule="evenodd" d="M1.5 9.75C1.5 9.55109 1.57902 9.36032 1.71967 9.21967C1.86032 9.07902 2.05109 9 2.25 9H21.75C21.9489 9 22.1397 9.07902 22.2803 9.21967C22.421 9.36032 22.5 9.55109 22.5 9.75C22.5 11.7375 21.729 13.7445 20.5845 15.4275C19.539 16.965 18.1455 18.2865 16.6425 19.1055V20.25C16.6425 20.4489 16.5635 20.6397 16.4228 20.7803C16.2822 20.921 16.0914 21 15.8925 21H8.157C7.95809 21 7.76732 20.921 7.62667 20.7803C7.48602 20.6397 7.407 20.4489 7.407 20.25V19.1055C5.904 18.2865 4.5 16.968 3.4425 15.4305C2.286 13.749 1.5 11.7405 1.5 9.75Z" fill="#DC143C"/>
</svg>
